<svg aria-hidden="true" style="position:absolute;width:0;height:0" xmlns="http://www.w3.org/2000/svg" overflow="hidden">
    <defs>
        <symbol id="icon-Icon" viewBox="0 0 46 32">
            <path   d="M45.153 2.914c1.425 1.515 1.425 3.971 0 5.485l-19.462 20.687c-1.425 1.515-3.736 1.515-5.161 0l-19.462-20.687c-1.425-1.515-1.425-3.971 0-5.485s3.736-1.515 5.161 0l16.882 17.944 16.882-17.944c1.425-1.515 3.735-1.515 5.161 0z"></path>
        </symbol>
        <symbol id="icon-search" viewBox="0 0 32 32">
            <path fill="#aeb1cd" style="fill: var(--color1, #aeb1cd)" d="M20.163 22.114l9.482 9.482c0.539 0.539 1.412 0.539 1.951 0s0.539-1.412 0-1.951l-9.482-9.482c3.904-4.874 3.596-12.009-0.922-16.527-4.848-4.848-12.708-4.848-17.556 0s-4.848 12.708 0 17.556c4.518 4.518 11.653 4.826 16.527 0.922zM5.587 19.242c-3.771-3.771-3.771-9.884 0-13.655s9.884-3.771 13.655 0c3.768 3.768 3.771 9.875 0.008 13.647-0.003 0.003-0.006 0.006-0.008 0.008s-0.006 0.006-0.008 0.008c-3.771 3.762-9.879 3.76-13.647-0.008z">
            </path>
        </symbol>
        <symbol id="icon-Vector" viewBox="0 0 45 32">
            <path fill="#fff" style="fill: var(--color1, #fff); stroke: var(--color1, #fff)" stroke="#fff" stroke-linejoin="miter" stroke-linecap="butt" stroke-miterlimit="4" stroke-width="1.28" d="M35.409 13.938h-30.838c-0.541 0-1.055 0.223-1.43 0.612s-0.581 0.91-0.581 1.45 0.206 1.061 0.581 1.45v0c0.375 0.389 0.889 0.612 1.43 0.612h30.838l-7.585 7.863c-0.186 0.193-0.332 0.42-0.431 0.669s-0.15 0.514-0.15 0.782c0 0.268 0.051 0.534 0.15 0.782s0.246 0.476 0.431 0.669c0.186 0.193 0.408 0.347 0.654 0.452v0c0.246 0.106 0.51 0.16 0.778 0.16s0.532-0.055 0.778-0.16c0.246-0.106 0.468-0.26 0.654-0.452l10.97-11.376c0-0 0-0 0-0l0.001-0-0.461-0.444-5.788-3.069zM35.409 13.938l-7.585-7.863c-0.186-0.193-0.332-0.42-0.431-0.669s-0.15-0.514-0.15-0.782c0-0.268 0.051-0.534 0.15-0.782s0.246-0.476 0.431-0.669c0.186-0.193 0.408-0.347 0.654-0.452s0.51-0.16 0.778-0.16 0.532 0.055 0.778 0.16c0.246 0.106 0.468 0.26 0.654 0.452l10.97 11.376c0 0 0 0 0 0l0 0-6.249-0.611z">
            </path>
        </symbol>
        <symbol id="icon-Vector-1" viewBox="0 0 26 32">
            <path fill="#fff" style="fill: var(--color1, #fff)" d="M24.815 18.076l-19.053 13.236c-2.245 1.562-5.762 0.293-5.762-2.078v-26.472c-0.001-0.531 0.191-1.050 0.553-1.496s0.878-0.8 1.486-1.019c0.608-0.219 1.284-0.295 1.944-0.217s1.28 0.305 1.782 0.654l19.046 13.236c0.373 0.259 0.673 0.578 0.878 0.937s0.311 0.748 0.311 1.141c0 0.394-0.106 0.783-0.311 1.141s-0.504 0.678-0.878 0.937h0.004z"></path>
        </symbol>
        <symbol id="icon-plass" viewBox="0 0 32 32">
        <path fill="#fff" style="fill: var(--color1, #fff)" d="M16 0c0.53 0 1.039 0.211 1.414 0.586s0.586 0.884 0.586 1.414v12h12c0.53 0 1.039 0.211 1.414 0.586s0.586 0.884 0.586 1.414c0 0.53-0.211 1.039-0.586 1.414s-0.884 0.586-1.414 0.586h-12v12c0 0.53-0.211 1.039-0.586 1.414s-0.884 0.586-1.414 0.586c-0.53 0-1.039-0.211-1.414-0.586s-0.586-0.884-0.586-1.414v-12h-12c-0.53 0-1.039-0.211-1.414-0.586s-0.586-0.884-0.586-1.414c0-0.53 0.211-1.039 0.586-1.414s0.884-0.586 1.414-0.586h12v-12c0-0.53 0.211-1.039 0.586-1.414s0.884-0.586 1.414-0.586z"></path>
        </symbol>
    </defs>
</svg>