<svg aria-hidden="true" style="position:absolute;width:0;height:0" xmlns="http://www.w3.org/2000/svg" overflow="hidden">
    <defs>
        <symbol id="icon-Icon" viewBox="0 0 53 32">
            <path fill="#8abb82" style="fill: var(--color1, #8abb82)" d="M52.343 1.055c-0.659-0.704-1.441-1.055-2.344-1.055h-46.666c-0.903 0-1.684 0.352-2.344 1.055s-0.989 1.538-0.989 2.501c0 0.963 0.33 1.796 0.989 2.5l23.333 24.888c0.661 0.704 1.442 1.056 2.344 1.056s1.684-0.352 2.344-1.056l23.333-24.888c0.659-0.704 0.99-1.537 0.99-2.5s-0.331-1.796-0.99-2.5z"></path>
        </symbol>
        <symbol id="icon-Component-2-5" viewBox="0 0 32 32">
        <path fill="#6cd78a" style="fill: var(--color1, #6cd78a)" d="M0 18.875v0.938c0 1.551 1.262 2.813 2.813 2.813h5.045l-1.197 2.393c-0.313 0.623 0.144 1.357 0.839 1.357h9.375v-7.5h-16.875z"></path>
        <path fill="#6cd78a" style="fill: var(--color1, #6cd78a)" d="M25.437 0h-22.625c-1.551 0-2.813 1.262-2.813 2.813v14.188h16.875v-2.813c0-2.585 2.103-4.687 4.688-4.687h6.687v-6.688c0-1.551-1.262-2.813-2.813-2.813z"></path>
        <path fill="#6cd78a" style="fill: var(--color1, #6cd78a)" d="M29.187 11.375h-7.625c-1.551 0-2.813 1.262-2.813 2.812v0.938c3.112 0 10.599 0 13.25 0v-0.938c0-1.551-1.262-2.812-2.813-2.812z"></path>
        <path fill="#6cd78a" style="fill: var(--color1, #6cd78a)" d="M18.75 17v9.375c3.112 0 10.599 0 13.25 0v-9.375c-2.662 0-10.141 0-13.25 0z"></path>
        <path fill="#6cd78a" style="fill: var(--color1, #6cd78a)" d="M18.75 28.25v0.937c0 1.551 1.262 2.813 2.813 2.813h7.625c1.551 0 2.813-1.262 2.813-2.813v-0.937c-2.662 0-10.141 0-13.25 0z"></path>
        </symbol>
        <symbol id="icon-image-left" viewBox="0 0 14 32">
            <path d="M13.044 28.401c-0.151-0.084-0.328-0.179-0.524-0.285-0.193-0.112-0.407-0.237-0.639-0.374-0.227-0.145-0.479-0.293-0.735-0.472-0.137-0.089-0.275-0.184-0.418-0.285 0-0.020 0.003-0.042 0.006-0.070 0.003-0.034 0.003-0.075 0.006-0.12 0.017 0 0.042-0.003 0.073-0.014 0.084-0.028 0.216-0.095 0.353-0.204 0.101-0.081 0.205-0.184 0.297-0.307 0.289-0.363 0.457-0.91 0.533-1.577 0.003-0.022 0.006-0.045 0.008-0.067 0.059-0.647-0.261-1.27-0.485-1.719-0.090-0.162-0.165-0.304-0.233-0.419-0.090-0.153-0.157-0.26-0.21-0.307-0.020-0.017-0.039-0.028-0.053-0.025-0.079-0.006-0.255 0.126-0.418 0.354-0.062 0.084-0.121 0.184-0.174 0.293-0.207 0.407-0.32 0.977-0.379 1.588-0.003 0.022-0.003 0.045-0.006 0.070-0.031 0.586 0.154 1.147 0.294 1.568 0.045 0.123 0.087 0.232 0.123 0.329 0.084 0.209 0.154 0.352 0.222 0.41 0 0.008-0.003 0.017-0.003 0.025-0.006 0.042-0.011 0.081-0.017 0.117-0.003 0.011-0.003 0.020-0.006 0.031-0.381-0.271-0.777-0.578-1.186-0.921-0.384-0.324-0.777-0.684-1.164-1.077 0.003-0.014 0.006-0.031 0.011-0.050 0.008-0.033 0.014-0.075 0.022-0.117 0.017 0.003 0.042 0.003 0.073-0.003 0.087-0.014 0.227-0.064 0.379-0.153 0.112-0.064 0.23-0.151 0.336-0.26 0.336-0.318 0.583-0.834 0.754-1.485 0.006-0.022 0.011-0.042 0.017-0.064 0.151-0.633-0.076-1.292-0.233-1.772-0.065-0.173-0.121-0.324-0.168-0.447-0.064-0.165-0.118-0.282-0.163-0.335-0.017-0.020-0.034-0.033-0.048-0.033-0.079-0.017-0.269 0.087-0.465 0.29-0.073 0.075-0.146 0.165-0.213 0.265-0.264 0.374-0.457 0.921-0.603 1.518-0.006 0.022-0.011 0.045-0.014 0.067-0.115 0.575-0.014 1.158 0.067 1.593 0.028 0.128 0.050 0.243 0.076 0.343 0.053 0.218 0.101 0.371 0.16 0.438-0.003 0.008-0.006 0.017-0.006 0.022-0.011 0.042-0.022 0.078-0.034 0.112 0 0.003-0.003 0.006-0.003 0.008-0.182-0.187-0.364-0.385-0.547-0.589-0.505-0.575-0.99-1.217-1.436-1.914 0.003-0.011 0.008-0.020 0.014-0.034 0.014-0.031 0.025-0.073 0.042-0.114 0.014 0.006 0.039 0.008 0.073 0.008 0.090 0 0.236-0.025 0.398-0.089 0.121-0.047 0.252-0.112 0.376-0.201 0.384-0.26 0.715-0.728 0.99-1.342 0.008-0.020 0.020-0.042 0.028-0.061 0.252-0.6 0.14-1.287 0.062-1.786-0.034-0.181-0.064-0.34-0.093-0.469-0.036-0.173-0.070-0.296-0.107-0.357-0.014-0.022-0.028-0.036-0.042-0.042-0.073-0.028-0.28 0.042-0.508 0.212-0.084 0.061-0.171 0.14-0.255 0.226-0.322 0.324-0.603 0.832-0.847 1.398-0.008 0.022-0.017 0.042-0.025 0.064-0.207 0.547-0.205 1.139-0.196 1.582 0.006 0.128 0.011 0.246 0.017 0.352 0.017 0.223 0.039 0.382 0.084 0.458-0.003 0.008-0.008 0.014-0.011 0.022-0.017 0.033-0.031 0.067-0.048 0.095-0.051-0.078-0.098-0.159-0.146-0.237-0.244-0.41-0.474-0.84-0.684-1.287-0.207-0.447-0.395-0.907-0.561-1.381-0.006-0.014-0.011-0.031-0.017-0.047 0.006-0.008 0.011-0.017 0.017-0.025 0.020-0.028 0.039-0.064 0.064-0.103 0.014 0.008 0.036 0.017 0.070 0.025 0.087 0.017 0.236 0.022 0.409-0.006 0.129-0.020 0.269-0.059 0.409-0.123 0.429-0.176 0.847-0.569 1.245-1.113 0.014-0.017 0.028-0.036 0.039-0.053 0.37-0.536 0.401-1.233 0.426-1.736 0.003-0.184 0.006-0.346 0.006-0.477 0-0.179-0.008-0.304-0.031-0.371-0.008-0.025-0.020-0.042-0.034-0.050-0.067-0.042-0.283-0.014-0.538 0.103-0.095 0.045-0.196 0.1-0.294 0.17-0.381 0.254-0.76 0.692-1.113 1.197-0.014 0.020-0.025 0.039-0.039 0.059-0.317 0.494-0.432 1.074-0.519 1.51-0.022 0.128-0.039 0.243-0.053 0.346-0.031 0.22-0.039 0.382-0.011 0.466-0.006 0.006-0.011 0.014-0.014 0.020-0.022 0.028-0.042 0.056-0.062 0.078-0.306-0.913-0.527-1.867-0.645-2.835-0.020-0.159-0.036-0.321-0.050-0.48 0.011-0.011 0.036-0.036 0.067-0.070 0.022-0.022 0.048-0.053 0.076-0.081 0.011 0.011 0.031 0.022 0.059 0.034 0.076 0.031 0.21 0.059 0.37 0.064 0.121 0.003 0.255-0.008 0.393-0.042 0.421-0.086 0.866-0.371 1.318-0.801 0.014-0.014 0.031-0.028 0.045-0.042 0.429-0.424 0.575-1.052 0.684-1.501 0.034-0.167 0.064-0.313 0.087-0.433 0.031-0.162 0.045-0.276 0.034-0.34-0.003-0.025-0.011-0.042-0.022-0.050-0.053-0.050-0.255-0.061-0.508 0.003-0.093 0.025-0.193 0.059-0.297 0.106-0.39 0.165-0.808 0.5-1.217 0.899-0.014 0.014-0.031 0.031-0.045 0.047-0.373 0.396-0.575 0.901-0.729 1.284-0.042 0.112-0.079 0.215-0.109 0.304-0.064 0.195-0.101 0.34-0.090 0.421-0.006 0.006-0.011 0.011-0.017 0.014-0.031 0.028-0.056 0.050-0.081 0.073-0.011 0.011-0.022 0.020-0.034 0.028-0.067-0.829-0.067-1.66-0.011-2.475 0.020-0.279 0.048-0.555 0.081-0.832 0.017-0.008 0.039-0.025 0.073-0.042 0.028-0.014 0.059-0.036 0.090-0.059 0.008 0.014 0.022 0.028 0.045 0.045 0.062 0.047 0.179 0.109 0.331 0.153 0.109 0.034 0.238 0.056 0.376 0.059 0.412 0.025 0.9-0.128 1.43-0.416 0.017-0.008 0.036-0.020 0.053-0.028 0.505-0.287 0.799-0.834 1.015-1.228 0.073-0.148 0.137-0.276 0.188-0.382 0.067-0.142 0.112-0.248 0.118-0.31 0.003-0.025 0-0.042-0.008-0.053-0.036-0.059-0.221-0.12-0.474-0.123-0.093-0.003-0.196 0.006-0.303 0.022-0.404 0.056-0.878 0.265-1.36 0.533-0.017 0.011-0.036 0.022-0.053 0.031-0.446 0.276-0.763 0.695-1.001 1.013-0.067 0.095-0.126 0.181-0.179 0.257-0.109 0.165-0.179 0.29-0.191 0.371-0.006 0.003-0.014 0.006-0.020 0.008-0.034 0.017-0.064 0.034-0.095 0.047-0.011 0.006-0.022 0.011-0.034 0.014 0.087-0.687 0.219-1.359 0.387-2.004 0.087-0.332 0.182-0.656 0.286-0.971 0.011-0.006 0.022-0.008 0.034-0.014 0.028-0.011 0.062-0.031 0.095-0.047 0.006 0.014 0.020 0.031 0.042 0.050 0.059 0.053 0.168 0.126 0.311 0.184 0.107 0.045 0.233 0.081 0.367 0.098 0.409 0.067 0.909-0.036 1.466-0.268 0.020-0.008 0.036-0.014 0.056-0.022 0.533-0.234 0.88-0.748 1.136-1.119 0.090-0.14 0.165-0.26 0.227-0.36 0.084-0.137 0.137-0.234 0.149-0.296 0.006-0.022 0.006-0.042-0.003-0.053-0.031-0.064-0.207-0.142-0.457-0.173-0.093-0.011-0.196-0.014-0.303-0.008-0.407 0.014-0.903 0.173-1.408 0.391-0.020 0.008-0.036 0.017-0.056 0.025-0.471 0.229-0.83 0.614-1.099 0.904-0.076 0.087-0.146 0.167-0.205 0.237-0.126 0.153-0.21 0.271-0.227 0.349-0.006 0.003-0.014 0.006-0.020 0.008-0.031 0.011-0.056 0.022-0.084 0.031 0.182-0.544 0.387-1.066 0.611-1.56 0.233-0.516 0.485-1.002 0.743-1.454 0.014-0.003 0.042-0.008 0.081-0.017 0.025-0.006 0.059-0.014 0.093-0.022 0.003 0.014 0.011 0.031 0.025 0.050 0.039 0.059 0.118 0.142 0.227 0.22 0.081 0.059 0.182 0.117 0.294 0.159 0.334 0.14 0.782 0.153 1.304 0.073 0.017-0.003 0.034-0.006 0.053-0.008 0.502-0.092 0.906-0.458 1.2-0.723 0.104-0.1 0.196-0.187 0.269-0.26 0.098-0.098 0.165-0.173 0.188-0.22 0.008-0.020 0.014-0.034 0.008-0.045-0.014-0.061-0.149-0.165-0.356-0.24-0.076-0.028-0.163-0.053-0.258-0.070-0.351-0.070-0.805-0.036-1.281 0.047-0.017 0.003-0.036 0.008-0.053 0.011-0.449 0.098-0.836 0.354-1.124 0.547-0.084 0.059-0.157 0.112-0.221 0.162-0.14 0.106-0.236 0.187-0.266 0.251-0.006 0-0.011 0.003-0.020 0.003-0.034 0.006-0.064 0.008-0.093 0.011-0.011 0-0.022 0.003-0.034 0.003 0.132-0.229 0.266-0.452 0.404-0.664 0.255-0.402 0.516-0.77 0.768-1.111 0.062 0.028 0.202 0.006 0.393-0.053 0.079-0.025 0.163-0.053 0.255-0.089 0.314-0.128 0.709-0.321 0.998-0.659 0.011-0.014 0.022-0.028 0.034-0.039 0.292-0.368 0.544-0.731 0.687-1.044 0.039-0.084 0.070-0.162 0.093-0.234 0.062-0.195 0.064-0.346 0.022-0.388-0.008-0.008-0.022-0.014-0.045-0.020-0.056-0.011-0.16-0.006-0.303 0.014-0.107 0.014-0.23 0.034-0.37 0.061-0.384 0.087-0.88 0.232-1.192 0.62-0.011 0.014-0.022 0.028-0.031 0.042-0.311 0.407-0.524 0.795-0.594 1.133-0.028 0.112-0.036 0.218-0.036 0.313 0 0.128 0.020 0.232 0.045 0.29 0.003 0.008 0.008 0.017 0.011 0.025-0.261 0.338-0.524 0.709-0.788 1.111-0.146 0.223-0.292 0.46-0.437 0.703 0-0.003-0.003-0.008-0.003-0.011-0.008-0.025-0.014-0.056-0.022-0.089 0-0.006-0.003-0.011-0.006-0.017 0.048-0.050 0.093-0.17 0.14-0.338 0.022-0.078 0.045-0.167 0.070-0.265 0.076-0.338 0.177-0.79 0.104-1.242-0.003-0.017-0.006-0.036-0.008-0.053-0.095-0.472-0.227-0.904-0.421-1.206-0.050-0.081-0.104-0.154-0.157-0.215-0.146-0.165-0.292-0.251-0.353-0.243-0.011 0-0.025 0.008-0.039 0.025-0.036 0.042-0.081 0.128-0.14 0.257-0.042 0.095-0.090 0.209-0.146 0.343-0.14 0.368-0.336 0.876-0.241 1.376 0.003 0.017 0.008 0.033 0.011 0.050 0.112 0.513 0.286 0.924 0.541 1.183 0.081 0.089 0.168 0.159 0.255 0.215 0.115 0.073 0.221 0.117 0.289 0.131 0.025 0.006 0.045 0.006 0.056 0.003 0.006 0.033 0.008 0.067 0.014 0.092 0.006 0.031 0.011 0.059 0.014 0.073-0.255 0.438-0.502 0.907-0.735 1.404-0.241 0.516-0.463 1.063-0.656 1.635 0-0.003 0-0.003-0.003-0.006-0.014-0.028-0.022-0.061-0.036-0.098-0.003-0.006-0.006-0.014-0.008-0.020 0.048-0.064 0.081-0.204 0.115-0.399 0.014-0.092 0.031-0.195 0.045-0.31 0.045-0.393 0.098-0.915-0.039-1.42-0.006-0.020-0.011-0.039-0.017-0.059-0.168-0.522-0.373-0.996-0.631-1.312-0.067-0.087-0.137-0.162-0.205-0.223-0.188-0.167-0.365-0.248-0.432-0.229-0.014 0.003-0.028 0.014-0.042 0.034-0.036 0.050-0.076 0.156-0.126 0.307-0.036 0.112-0.076 0.248-0.123 0.407-0.112 0.435-0.272 1.035-0.098 1.588 0.006 0.020 0.014 0.039 0.020 0.056 0.191 0.567 0.443 1.013 0.763 1.273 0.101 0.089 0.213 0.159 0.317 0.212 0.14 0.070 0.266 0.103 0.345 0.112 0.028 0.003 0.051 0.003 0.064-0.003 0.008 0.039 0.017 0.075 0.025 0.103 0.011 0.042 0.022 0.073 0.025 0.087-0.095 0.287-0.185 0.578-0.266 0.876-0.179 0.656-0.32 1.34-0.415 2.037-0.014-0.020-0.031-0.039-0.048-0.061-0.003-0.006-0.008-0.011-0.014-0.017 0.028-0.075 0.020-0.218-0.008-0.416-0.011-0.092-0.028-0.195-0.048-0.31-0.073-0.388-0.174-0.904-0.454-1.348-0.011-0.017-0.022-0.033-0.034-0.053-0.314-0.449-0.648-0.843-0.987-1.072-0.090-0.064-0.177-0.114-0.261-0.153-0.227-0.106-0.421-0.131-0.48-0.095-0.011 0.006-0.022 0.020-0.031 0.045-0.020 0.059-0.028 0.17-0.031 0.329 0 0.117 0 0.26 0.003 0.424 0.022 0.447 0.045 1.069 0.373 1.546 0.011 0.017 0.022 0.034 0.036 0.047 0.35 0.488 0.721 0.84 1.102 0.996 0.123 0.056 0.25 0.092 0.365 0.109 0.154 0.025 0.286 0.022 0.365 0.008 0.028-0.006 0.050-0.014 0.062-0.022 0.020 0.034 0.039 0.067 0.056 0.092 0.008 0.011 0.014 0.022 0.022 0.033-0.036 0.268-0.064 0.536-0.087 0.807-0.064 0.812-0.076 1.638-0.020 2.464-0.011-0.008-0.020-0.020-0.031-0.028-0.006-0.006-0.011-0.011-0.017-0.014 0.014-0.081-0.022-0.226-0.090-0.421-0.031-0.092-0.067-0.193-0.109-0.304-0.151-0.382-0.356-0.887-0.729-1.284-0.014-0.017-0.028-0.031-0.045-0.045-0.407-0.399-0.827-0.734-1.217-0.899-0.104-0.047-0.205-0.081-0.297-0.106-0.252-0.064-0.454-0.053-0.508-0.003-0.011 0.008-0.020 0.025-0.022 0.050-0.008 0.064 0.006 0.179 0.034 0.34 0.022 0.12 0.050 0.265 0.087 0.433 0.109 0.452 0.255 1.080 0.684 1.501 0.014 0.014 0.031 0.028 0.045 0.042 0.451 0.427 0.9 0.714 1.318 0.801 0.137 0.033 0.272 0.045 0.393 0.042 0.163-0.003 0.294-0.034 0.37-0.064 0.028-0.011 0.048-0.022 0.059-0.033 0.028 0.031 0.050 0.059 0.073 0.081 0.014 0.176 0.028 0.349 0.048 0.525 0.107 0.971 0.314 1.934 0.608 2.852-0.006-0.003-0.014-0.008-0.020-0.011-0.003-0.089-0.073-0.234-0.185-0.43-0.051-0.089-0.112-0.19-0.179-0.301-0.241-0.374-0.566-0.868-1.046-1.211-0.020-0.014-0.036-0.028-0.056-0.039-0.516-0.338-1.035-0.606-1.481-0.7-0.118-0.028-0.233-0.045-0.337-0.050-0.283-0.017-0.494 0.039-0.541 0.103-0.011 0.011-0.014 0.031-0.014 0.059 0.003 0.070 0.045 0.19 0.109 0.354 0.048 0.123 0.109 0.271 0.182 0.441 0.213 0.458 0.499 1.094 1.043 1.454 0.020 0.011 0.039 0.025 0.056 0.036 0.572 0.36 1.105 0.569 1.57 0.572 0.154 0.006 0.3-0.011 0.426-0.039 0.171-0.039 0.306-0.098 0.381-0.145 0.028-0.017 0.045-0.034 0.056-0.047 0.022 0.017 0.042 0.034 0.062 0.047 0.008 0.022 0.014 0.045 0.022 0.067 0.163 0.483 0.351 0.954 0.555 1.412 0.21 0.455 0.437 0.893 0.681 1.314 0.048 0.081 0.098 0.165 0.146 0.243-0.006-0.003-0.011-0.006-0.020-0.006-0.008-0.003-0.014-0.006-0.022-0.008-0.022-0.087-0.118-0.218-0.264-0.385-0.067-0.078-0.149-0.165-0.236-0.262-0.311-0.321-0.723-0.742-1.262-0.985-0.020-0.008-0.042-0.020-0.064-0.028-0.572-0.232-1.133-0.393-1.59-0.399-0.123-0.006-0.238 0.003-0.342 0.017-0.28 0.039-0.477 0.134-0.51 0.206-0.008 0.014-0.008 0.034 0 0.059 0.017 0.067 0.081 0.179 0.177 0.326 0.073 0.112 0.163 0.246 0.266 0.399 0.297 0.407 0.704 0.977 1.307 1.222 0.020 0.008 0.042 0.017 0.064 0.025 0.631 0.243 1.195 0.346 1.652 0.26 0.151-0.022 0.292-0.067 0.409-0.12 0.16-0.070 0.283-0.154 0.345-0.218 0.022-0.022 0.039-0.042 0.045-0.059 0.034 0.017 0.067 0.034 0.095 0.045 0.44 0.709 0.923 1.362 1.427 1.948 0.199 0.232 0.401 0.452 0.606 0.664-0.020-0.003-0.039-0.003-0.059-0.006-0.008 0-0.017-0.003-0.025-0.003-0.042-0.081-0.165-0.181-0.351-0.31-0.084-0.059-0.182-0.126-0.292-0.198-0.379-0.234-0.883-0.544-1.464-0.65-0.022-0.006-0.045-0.008-0.070-0.011-0.611-0.087-1.195-0.109-1.64-0.003-0.121 0.025-0.23 0.059-0.325 0.098-0.261 0.106-0.429 0.246-0.443 0.324-0.003 0.014 0 0.034 0.014 0.059 0.034 0.061 0.121 0.154 0.252 0.276 0.095 0.089 0.216 0.198 0.356 0.321 0.387 0.324 0.92 0.776 1.567 0.871 0.022 0.003 0.045 0.006 0.067 0.008 0.67 0.084 1.245 0.045 1.666-0.148 0.143-0.059 0.266-0.137 0.367-0.215 0.137-0.106 0.236-0.218 0.283-0.293 0.017-0.028 0.025-0.050 0.028-0.067 0.042 0.008 0.084 0.020 0.118 0.022 0.008 0 0.017 0.003 0.025 0.003 0.367 0.377 0.737 0.723 1.099 1.035 0.426 0.366 0.841 0.692 1.237 0.98-0.003 0-0.006 0-0.008 0.003-0.034 0.006-0.073 0.008-0.118 0.014-0.008 0-0.017 0.003-0.025 0.003-0.059-0.070-0.202-0.142-0.409-0.229-0.095-0.042-0.205-0.084-0.328-0.131-0.421-0.151-0.981-0.346-1.57-0.329-0.022 0-0.048 0.003-0.070 0.003-0.617 0.045-1.189 0.145-1.604 0.343-0.112 0.050-0.213 0.106-0.297 0.165-0.233 0.159-0.367 0.329-0.365 0.407 0 0.014 0.008 0.033 0.025 0.053 0.045 0.053 0.151 0.123 0.306 0.215 0.112 0.067 0.252 0.148 0.415 0.24 0.449 0.234 1.066 0.564 1.716 0.519 0.022-0.003 0.045-0.003 0.067-0.006 0.673-0.061 1.225-0.218 1.596-0.497 0.126-0.087 0.23-0.19 0.314-0.287 0.112-0.134 0.185-0.262 0.213-0.346 0.011-0.031 0.014-0.056 0.014-0.073 0.045 0 0.087 0 0.121-0.003 0.042-0.003 0.073-0.003 0.093-0.006 0.123 0.087 0.244 0.17 0.362 0.251 0.258 0.184 0.513 0.335 0.743 0.488 0.236 0.142 0.451 0.271 0.645 0.388 0.199 0.112 0.379 0.209 0.533 0.296s0.289 0.151 0.395 0.207c0.216 0.112 0.328 0.17 0.328 0.17l0.174-0.338c0 0-0.115-0.059-0.331-0.167-0.062-0.017-0.196-0.081-0.351-0.165z"></path>
        </symbol>
        <symbol id="icon-image-right" viewBox="0 0 14 32">
            <path d="M1.356 28.401c0.151-0.084 0.328-0.179 0.524-0.285 0.193-0.112 0.407-0.237 0.639-0.374 0.227-0.145 0.479-0.293 0.735-0.472 0.137-0.089 0.275-0.184 0.418-0.285 0-0.020-0.003-0.042-0.006-0.070-0.003-0.034-0.003-0.075-0.006-0.12-0.017 0-0.042-0.003-0.073-0.014-0.084-0.028-0.216-0.095-0.353-0.204-0.101-0.081-0.205-0.184-0.297-0.307-0.289-0.363-0.457-0.91-0.533-1.577-0.003-0.022-0.006-0.045-0.008-0.067-0.059-0.647 0.261-1.27 0.485-1.719 0.090-0.162 0.165-0.304 0.233-0.419 0.090-0.153 0.157-0.26 0.21-0.307 0.020-0.017 0.039-0.028 0.053-0.025 0.079-0.006 0.255 0.126 0.418 0.354 0.062 0.084 0.121 0.184 0.174 0.293 0.208 0.407 0.32 0.977 0.379 1.588 0.003 0.022 0.003 0.045 0.006 0.070 0.031 0.586-0.154 1.147-0.294 1.568-0.045 0.123-0.087 0.232-0.123 0.329-0.084 0.209-0.154 0.352-0.221 0.41 0 0.008 0.003 0.017 0.003 0.025 0.006 0.042 0.011 0.081 0.017 0.117 0.003 0.011 0.003 0.020 0.006 0.031 0.381-0.271 0.777-0.578 1.186-0.921 0.384-0.324 0.777-0.684 1.164-1.077-0.003-0.014-0.006-0.031-0.011-0.050-0.008-0.033-0.014-0.075-0.022-0.117-0.017 0.003-0.042 0.003-0.073-0.003-0.087-0.014-0.227-0.064-0.379-0.153-0.112-0.064-0.23-0.151-0.336-0.26-0.337-0.318-0.583-0.834-0.754-1.485-0.006-0.022-0.011-0.042-0.017-0.064-0.151-0.633 0.076-1.292 0.233-1.772 0.064-0.173 0.121-0.324 0.168-0.447 0.064-0.165 0.118-0.282 0.163-0.335 0.017-0.020 0.034-0.033 0.048-0.033 0.079-0.017 0.269 0.087 0.465 0.29 0.073 0.075 0.146 0.165 0.213 0.265 0.264 0.374 0.457 0.921 0.603 1.518 0.006 0.022 0.011 0.045 0.014 0.067 0.115 0.575 0.014 1.158-0.067 1.593-0.028 0.128-0.050 0.243-0.076 0.343-0.053 0.218-0.101 0.371-0.16 0.438 0.003 0.008 0.006 0.017 0.006 0.022 0.011 0.042 0.022 0.078 0.034 0.112 0 0.003 0.003 0.006 0.003 0.008 0.182-0.187 0.364-0.385 0.547-0.589 0.505-0.575 0.99-1.217 1.436-1.914-0.003-0.011-0.008-0.020-0.014-0.034-0.014-0.031-0.025-0.073-0.042-0.114-0.014 0.006-0.039 0.008-0.073 0.008-0.090 0-0.236-0.025-0.398-0.089-0.121-0.047-0.252-0.112-0.376-0.201-0.384-0.26-0.715-0.728-0.99-1.342-0.008-0.020-0.020-0.042-0.028-0.061-0.252-0.6-0.14-1.287-0.062-1.786 0.034-0.181 0.064-0.34 0.093-0.469 0.036-0.173 0.070-0.296 0.107-0.357 0.014-0.022 0.028-0.036 0.042-0.042 0.073-0.028 0.28 0.042 0.508 0.212 0.084 0.061 0.171 0.14 0.255 0.226 0.322 0.324 0.603 0.832 0.847 1.398 0.008 0.022 0.017 0.042 0.025 0.064 0.207 0.547 0.205 1.139 0.196 1.582-0.006 0.128-0.011 0.246-0.017 0.352-0.017 0.223-0.039 0.382-0.084 0.458 0.003 0.008 0.008 0.014 0.011 0.022 0.017 0.033 0.031 0.067 0.048 0.095 0.050-0.078 0.098-0.159 0.146-0.237 0.244-0.41 0.474-0.84 0.684-1.287 0.207-0.447 0.395-0.907 0.561-1.381 0.006-0.014 0.011-0.031 0.017-0.047-0.006-0.008-0.011-0.017-0.017-0.025-0.020-0.028-0.039-0.064-0.064-0.103-0.014 0.008-0.036 0.017-0.070 0.025-0.087 0.017-0.236 0.022-0.409-0.006-0.129-0.020-0.269-0.059-0.409-0.123-0.429-0.176-0.847-0.569-1.245-1.113-0.014-0.017-0.028-0.036-0.039-0.053-0.37-0.536-0.401-1.233-0.426-1.736-0.003-0.184-0.006-0.346-0.006-0.477 0-0.179 0.008-0.304 0.031-0.371 0.008-0.025 0.020-0.042 0.034-0.050 0.067-0.042 0.283-0.014 0.538 0.103 0.095 0.045 0.196 0.1 0.294 0.17 0.381 0.254 0.76 0.692 1.113 1.197 0.014 0.020 0.025 0.039 0.039 0.059 0.317 0.494 0.432 1.074 0.519 1.51 0.022 0.128 0.039 0.243 0.053 0.346 0.031 0.22 0.039 0.382 0.011 0.466 0.006 0.006 0.011 0.014 0.014 0.020 0.022 0.028 0.042 0.056 0.062 0.078 0.306-0.913 0.527-1.867 0.645-2.835 0.020-0.159 0.036-0.321 0.050-0.48-0.011-0.011-0.036-0.036-0.067-0.070-0.022-0.022-0.048-0.053-0.076-0.081-0.011 0.011-0.031 0.022-0.059 0.034-0.076 0.031-0.21 0.059-0.37 0.064-0.121 0.003-0.255-0.008-0.393-0.042-0.421-0.086-0.866-0.371-1.318-0.801-0.014-0.014-0.031-0.028-0.045-0.042-0.429-0.424-0.575-1.052-0.684-1.501-0.034-0.167-0.064-0.313-0.087-0.433-0.031-0.162-0.045-0.276-0.034-0.34 0.003-0.025 0.011-0.042 0.022-0.050 0.053-0.050 0.255-0.061 0.508 0.003 0.093 0.025 0.193 0.059 0.297 0.106 0.39 0.165 0.808 0.5 1.217 0.899 0.014 0.014 0.031 0.031 0.045 0.047 0.373 0.396 0.575 0.901 0.729 1.284 0.042 0.112 0.079 0.215 0.109 0.304 0.065 0.195 0.101 0.34 0.090 0.421 0.006 0.006 0.011 0.011 0.017 0.014 0.031 0.028 0.056 0.050 0.081 0.073 0.011 0.011 0.022 0.020 0.034 0.028 0.067-0.829 0.067-1.66 0.011-2.475-0.020-0.279-0.048-0.555-0.081-0.832-0.017-0.008-0.039-0.025-0.073-0.042-0.028-0.014-0.059-0.036-0.090-0.059-0.008 0.014-0.022 0.028-0.045 0.045-0.062 0.047-0.179 0.109-0.331 0.153-0.109 0.034-0.238 0.056-0.376 0.059-0.412 0.025-0.9-0.128-1.43-0.416-0.017-0.008-0.036-0.020-0.053-0.028-0.505-0.287-0.799-0.834-1.015-1.228-0.073-0.148-0.137-0.276-0.188-0.382-0.067-0.142-0.112-0.248-0.118-0.31-0.003-0.025 0-0.042 0.008-0.053 0.036-0.059 0.221-0.12 0.474-0.123 0.093-0.003 0.196 0.006 0.303 0.022 0.404 0.056 0.878 0.265 1.36 0.533 0.017 0.011 0.036 0.022 0.053 0.031 0.446 0.276 0.763 0.695 1.001 1.013 0.067 0.095 0.126 0.181 0.179 0.257 0.109 0.165 0.179 0.29 0.191 0.371 0.006 0.003 0.014 0.006 0.020 0.008 0.034 0.017 0.065 0.034 0.095 0.047 0.011 0.006 0.022 0.011 0.034 0.014-0.087-0.687-0.219-1.359-0.387-2.004-0.087-0.332-0.182-0.656-0.286-0.971-0.011-0.006-0.022-0.008-0.034-0.014-0.028-0.011-0.062-0.031-0.095-0.047-0.006 0.014-0.020 0.031-0.042 0.050-0.059 0.053-0.168 0.126-0.311 0.184-0.107 0.045-0.233 0.081-0.367 0.098-0.409 0.067-0.909-0.036-1.466-0.268-0.020-0.008-0.036-0.014-0.056-0.022-0.533-0.234-0.88-0.748-1.136-1.119-0.090-0.14-0.165-0.26-0.227-0.36-0.084-0.137-0.137-0.234-0.149-0.296-0.006-0.022-0.006-0.042 0.003-0.053 0.031-0.064 0.207-0.142 0.457-0.173 0.093-0.011 0.196-0.014 0.303-0.008 0.407 0.014 0.903 0.173 1.408 0.391 0.020 0.008 0.036 0.017 0.056 0.025 0.471 0.229 0.83 0.614 1.099 0.904 0.076 0.087 0.146 0.167 0.205 0.237 0.126 0.153 0.21 0.271 0.227 0.349 0.006 0.003 0.014 0.006 0.020 0.008 0.031 0.011 0.056 0.022 0.084 0.031-0.182-0.544-0.387-1.066-0.611-1.56-0.233-0.516-0.485-1.002-0.743-1.454-0.014-0.003-0.042-0.008-0.081-0.017-0.025-0.006-0.059-0.014-0.093-0.022-0.003 0.014-0.011 0.031-0.025 0.050-0.039 0.059-0.118 0.142-0.227 0.22-0.081 0.059-0.182 0.117-0.294 0.159-0.334 0.14-0.782 0.153-1.304 0.073-0.017-0.003-0.034-0.006-0.053-0.008-0.502-0.092-0.906-0.458-1.2-0.723-0.104-0.1-0.196-0.187-0.269-0.26-0.098-0.098-0.165-0.173-0.188-0.22-0.008-0.020-0.014-0.034-0.008-0.045 0.014-0.061 0.149-0.165 0.356-0.24 0.076-0.028 0.163-0.053 0.258-0.070 0.351-0.070 0.805-0.036 1.281 0.047 0.017 0.003 0.036 0.008 0.053 0.011 0.449 0.098 0.836 0.354 1.124 0.547 0.084 0.059 0.157 0.112 0.221 0.162 0.14 0.106 0.236 0.187 0.266 0.251 0.006 0 0.011 0.003 0.020 0.003 0.034 0.006 0.064 0.008 0.093 0.011 0.011 0 0.022 0.003 0.034 0.003-0.132-0.229-0.266-0.452-0.404-0.664-0.255-0.402-0.516-0.77-0.768-1.111-0.062 0.028-0.202 0.006-0.393-0.053-0.079-0.025-0.163-0.053-0.255-0.089-0.314-0.128-0.709-0.321-0.998-0.659-0.011-0.014-0.022-0.028-0.034-0.039-0.292-0.368-0.544-0.731-0.687-1.044-0.039-0.084-0.070-0.162-0.093-0.234-0.062-0.195-0.064-0.346-0.022-0.388 0.008-0.008 0.022-0.014 0.045-0.020 0.056-0.011 0.16-0.006 0.303 0.014 0.107 0.014 0.23 0.034 0.37 0.061 0.384 0.087 0.88 0.232 1.192 0.62 0.011 0.014 0.022 0.028 0.031 0.042 0.311 0.407 0.524 0.795 0.594 1.133 0.028 0.112 0.036 0.218 0.036 0.313 0 0.128-0.020 0.232-0.045 0.29-0.003 0.008-0.008 0.017-0.011 0.025 0.261 0.338 0.524 0.709 0.788 1.111 0.146 0.223 0.292 0.46 0.437 0.703 0-0.003 0.003-0.008 0.003-0.011 0.008-0.025 0.014-0.056 0.022-0.089 0-0.006 0.003-0.011 0.006-0.017-0.048-0.050-0.092-0.17-0.14-0.338-0.022-0.078-0.045-0.167-0.070-0.265-0.076-0.338-0.177-0.79-0.104-1.242 0.003-0.017 0.006-0.036 0.008-0.053 0.095-0.472 0.227-0.904 0.421-1.206 0.050-0.081 0.104-0.154 0.157-0.215 0.146-0.165 0.292-0.251 0.353-0.243 0.011 0 0.025 0.008 0.039 0.025 0.036 0.042 0.081 0.128 0.14 0.257 0.042 0.095 0.090 0.209 0.146 0.343 0.14 0.368 0.336 0.876 0.241 1.376-0.003 0.017-0.008 0.033-0.011 0.050-0.112 0.513-0.286 0.924-0.541 1.183-0.081 0.089-0.168 0.159-0.255 0.215-0.115 0.073-0.222 0.117-0.289 0.131-0.025 0.006-0.045 0.006-0.056 0.003-0.006 0.033-0.008 0.067-0.014 0.092-0.006 0.031-0.011 0.059-0.014 0.073 0.255 0.438 0.502 0.907 0.735 1.404 0.241 0.516 0.463 1.063 0.656 1.635 0-0.003 0-0.003 0.003-0.006 0.014-0.028 0.022-0.061 0.036-0.098 0.003-0.006 0.006-0.014 0.008-0.020-0.048-0.064-0.081-0.204-0.115-0.399-0.014-0.092-0.031-0.195-0.045-0.31-0.045-0.393-0.098-0.915 0.039-1.42 0.006-0.020 0.011-0.039 0.017-0.059 0.168-0.522 0.373-0.996 0.631-1.312 0.067-0.087 0.137-0.162 0.205-0.223 0.188-0.167 0.364-0.248 0.432-0.229 0.014 0.003 0.028 0.014 0.042 0.034 0.036 0.050 0.076 0.156 0.126 0.307 0.036 0.112 0.076 0.248 0.123 0.407 0.112 0.435 0.272 1.035 0.098 1.588-0.006 0.020-0.014 0.039-0.020 0.056-0.191 0.567-0.443 1.013-0.763 1.273-0.101 0.089-0.213 0.159-0.317 0.212-0.14 0.070-0.266 0.103-0.345 0.112-0.028 0.003-0.050 0.003-0.065-0.003-0.008 0.039-0.017 0.075-0.025 0.103-0.011 0.042-0.022 0.073-0.025 0.087 0.095 0.287 0.185 0.578 0.266 0.876 0.18 0.656 0.32 1.34 0.415 2.037 0.014-0.020 0.031-0.039 0.048-0.061 0.003-0.006 0.008-0.011 0.014-0.017-0.028-0.075-0.020-0.218 0.008-0.416 0.011-0.092 0.028-0.195 0.048-0.31 0.073-0.388 0.174-0.904 0.454-1.348 0.011-0.017 0.022-0.033 0.034-0.053 0.314-0.449 0.648-0.843 0.987-1.072 0.090-0.064 0.177-0.114 0.261-0.153 0.227-0.106 0.421-0.131 0.479-0.095 0.011 0.006 0.022 0.020 0.031 0.045 0.020 0.059 0.028 0.17 0.031 0.329 0 0.117 0 0.26-0.003 0.424-0.022 0.447-0.045 1.069-0.373 1.546-0.011 0.017-0.022 0.034-0.036 0.047-0.351 0.488-0.721 0.84-1.102 0.996-0.123 0.056-0.25 0.092-0.365 0.109-0.154 0.025-0.286 0.022-0.364 0.008-0.028-0.006-0.050-0.014-0.062-0.022-0.020 0.034-0.039 0.067-0.056 0.092-0.008 0.011-0.014 0.022-0.022 0.033 0.036 0.268 0.064 0.536 0.087 0.807 0.064 0.812 0.076 1.638 0.020 2.464 0.011-0.008 0.020-0.020 0.031-0.028 0.006-0.006 0.011-0.011 0.017-0.014-0.014-0.081 0.022-0.226 0.090-0.421 0.031-0.092 0.067-0.193 0.109-0.304 0.151-0.382 0.356-0.887 0.729-1.284 0.014-0.017 0.028-0.031 0.045-0.045 0.407-0.399 0.827-0.734 1.217-0.899 0.104-0.047 0.205-0.081 0.297-0.106 0.252-0.064 0.454-0.053 0.508-0.003 0.011 0.008 0.020 0.025 0.022 0.050 0.008 0.064-0.006 0.179-0.034 0.34-0.022 0.12-0.050 0.265-0.087 0.433-0.109 0.452-0.255 1.080-0.684 1.501-0.014 0.014-0.031 0.028-0.045 0.042-0.451 0.427-0.9 0.714-1.318 0.801-0.137 0.033-0.272 0.045-0.393 0.042-0.163-0.003-0.294-0.034-0.37-0.064-0.028-0.011-0.048-0.022-0.059-0.033-0.028 0.031-0.050 0.059-0.073 0.081-0.014 0.176-0.028 0.349-0.048 0.525-0.107 0.971-0.314 1.934-0.608 2.852 0.006-0.003 0.014-0.008 0.020-0.011 0.003-0.089 0.073-0.234 0.185-0.43 0.050-0.089 0.112-0.19 0.179-0.301 0.241-0.374 0.566-0.868 1.046-1.211 0.020-0.014 0.036-0.028 0.056-0.039 0.516-0.338 1.035-0.606 1.481-0.7 0.118-0.028 0.233-0.045 0.336-0.050 0.283-0.017 0.493 0.039 0.541 0.103 0.011 0.011 0.014 0.031 0.014 0.059-0.003 0.070-0.045 0.19-0.109 0.354-0.048 0.123-0.109 0.271-0.182 0.441-0.213 0.458-0.499 1.094-1.043 1.454-0.020 0.011-0.039 0.025-0.056 0.036-0.572 0.36-1.105 0.569-1.57 0.572-0.154 0.006-0.3-0.011-0.426-0.039-0.171-0.039-0.306-0.098-0.381-0.145-0.028-0.017-0.045-0.034-0.056-0.047-0.022 0.017-0.042 0.034-0.062 0.047-0.008 0.022-0.014 0.045-0.022 0.067-0.163 0.483-0.351 0.954-0.555 1.412-0.21 0.455-0.437 0.893-0.681 1.314-0.048 0.081-0.098 0.165-0.146 0.243 0.006-0.003 0.011-0.006 0.020-0.006 0.008-0.003 0.014-0.006 0.022-0.008 0.022-0.087 0.118-0.218 0.264-0.385 0.067-0.078 0.149-0.165 0.236-0.262 0.311-0.321 0.723-0.742 1.262-0.985 0.020-0.008 0.042-0.020 0.065-0.028 0.572-0.232 1.133-0.393 1.59-0.399 0.123-0.006 0.238 0.003 0.342 0.017 0.28 0.039 0.477 0.134 0.51 0.206 0.008 0.014 0.008 0.034 0 0.059-0.017 0.067-0.081 0.179-0.177 0.326-0.073 0.112-0.163 0.246-0.266 0.399-0.297 0.407-0.704 0.977-1.307 1.222-0.020 0.008-0.042 0.017-0.064 0.025-0.631 0.243-1.195 0.346-1.652 0.26-0.151-0.022-0.292-0.067-0.409-0.12-0.16-0.070-0.283-0.154-0.345-0.218-0.022-0.022-0.039-0.042-0.045-0.059-0.034 0.017-0.067 0.034-0.095 0.045-0.44 0.709-0.923 1.362-1.427 1.948-0.199 0.232-0.401 0.452-0.606 0.664 0.020-0.003 0.039-0.003 0.059-0.006 0.008 0 0.017-0.003 0.025-0.003 0.042-0.081 0.165-0.181 0.351-0.31 0.084-0.059 0.182-0.126 0.292-0.198 0.379-0.234 0.883-0.544 1.464-0.65 0.022-0.006 0.045-0.008 0.070-0.011 0.611-0.087 1.195-0.109 1.64-0.003 0.121 0.025 0.23 0.059 0.325 0.098 0.261 0.106 0.429 0.246 0.443 0.324 0.003 0.014 0 0.034-0.014 0.059-0.034 0.061-0.121 0.154-0.252 0.276-0.095 0.089-0.216 0.198-0.356 0.321-0.387 0.324-0.92 0.776-1.567 0.871-0.022 0.003-0.045 0.006-0.067 0.008-0.67 0.084-1.245 0.045-1.666-0.148-0.143-0.059-0.266-0.137-0.367-0.215-0.137-0.106-0.236-0.218-0.283-0.293-0.017-0.028-0.025-0.050-0.028-0.067-0.042 0.008-0.084 0.020-0.118 0.022-0.008 0-0.017 0.003-0.025 0.003-0.367 0.377-0.737 0.723-1.099 1.035-0.426 0.366-0.841 0.692-1.237 0.98 0.003 0 0.006 0 0.008 0.003 0.034 0.006 0.073 0.008 0.118 0.014 0.008 0 0.017 0.003 0.025 0.003 0.059-0.070 0.202-0.142 0.409-0.229 0.095-0.042 0.205-0.084 0.328-0.131 0.421-0.151 0.981-0.346 1.57-0.329 0.022 0 0.048 0.003 0.070 0.003 0.617 0.045 1.189 0.145 1.604 0.343 0.112 0.050 0.213 0.106 0.297 0.165 0.233 0.159 0.367 0.329 0.365 0.407 0 0.014-0.008 0.033-0.025 0.053-0.045 0.053-0.151 0.123-0.306 0.215-0.112 0.067-0.252 0.148-0.415 0.24-0.449 0.234-1.066 0.564-1.716 0.519-0.022-0.003-0.045-0.003-0.067-0.006-0.673-0.061-1.225-0.218-1.596-0.497-0.126-0.087-0.23-0.19-0.314-0.287-0.112-0.134-0.185-0.262-0.213-0.346-0.011-0.031-0.014-0.056-0.014-0.073-0.045 0-0.087 0-0.121-0.003-0.042-0.003-0.073-0.003-0.093-0.006-0.123 0.087-0.244 0.17-0.362 0.251-0.258 0.184-0.513 0.335-0.743 0.488-0.236 0.142-0.451 0.271-0.645 0.388-0.199 0.112-0.379 0.209-0.533 0.296s-0.289 0.151-0.395 0.207c-0.216 0.112-0.328 0.17-0.328 0.17l-0.174-0.338c0 0 0.115-0.059 0.331-0.167 0.062-0.017 0.196-0.081 0.351-0.165z"></path>
        </symbol>
        <symbol id="icon-plus" viewBox="0 0 23 32">
            <path stroke-linejoin="miter" stroke-linecap="butt" stroke-miterlimit="4" stroke-width="0.9143" d="M12.901 25.292v-22.027c0-0.386-0.159-0.754-0.437-1.022s-0.65-0.415-1.036-0.415-0.758 0.147-1.036 0.415v0c-0.278 0.268-0.437 0.635-0.437 1.022v22.027l-5.617-5.418c-0.138-0.133-0.3-0.237-0.478-0.308s-0.367-0.107-0.559-0.107c-0.191 0-0.381 0.036-0.559 0.107s-0.34 0.175-0.478 0.308c-0.138 0.133-0.248 0.291-0.323 0.467v0c-0.075 0.176-0.115 0.365-0.115 0.556s0.039 0.38 0.115 0.556c0.075 0.176 0.186 0.334 0.323 0.467l8.125 7.836c0 0 0 0 0 0l0 0 0.317-0.329 2.192-4.134zM12.901 25.292l5.617-5.418c0.138-0.133 0.3-0.237 0.478-0.308s0.367-0.107 0.559-0.107c0.191 0 0.381 0.036 0.559 0.107s0.34 0.175 0.478 0.308c0.138 0.133 0.248 0.291 0.323 0.467s0.114 0.365 0.114 0.556-0.039 0.38-0.114 0.556c-0.075 0.176-0.186 0.334-0.323 0.467l-8.125 7.836c-0 0-0 0-0 0l-0 0 0.436-4.463z"></path>
        </symbol>
        <symbol id="icon-search" viewBox="0 0 32 32">
            <path fill="#aeb1cd" style="fill: var(--color1, #aeb1cd)" d="M20.163 22.114l9.482 9.482c0.539 0.539 1.412 0.539 1.951 0s0.539-1.412 0-1.951l-9.482-9.482c3.904-4.874 3.596-12.009-0.922-16.527-4.848-4.848-12.708-4.848-17.556 0s-4.848 12.708 0 17.556c4.518 4.518 11.653 4.826 16.527 0.922zM5.587 19.242c-3.771-3.771-3.771-9.884 0-13.655s9.884-3.771 13.655 0c3.768 3.768 3.771 9.875 0.008 13.647-0.003 0.003-0.006 0.006-0.008 0.008s-0.006 0.006-0.008 0.008c-3.771 3.762-9.879 3.76-13.647-0.008z">
            </path>
        </symbol>
        <symbol id="icon-Vector" viewBox="0 0 28 32">
            <path fill="#8abb82" style="fill: var(--color1, #8abb82)" d="M26.946 18.306c-0.186-0.192-0.443-0.299-0.71-0.298h-5.208c-0.406 0-0.736-0.329-0.736-0.736v-16.287c0-0.544-0.441-0.986-0.986-0.986h-10.137c-0.544 0-0.986 0.441-0.986 0.986v16.287c0 0.406-0.329 0.736-0.736 0.736h-5.223c-0.544-0.010-0.994 0.423-1.004 0.967-0.005 0.273 0.103 0.535 0.298 0.725l12.005 12.005c0.183 0.186 0.431 0.291 0.692 0.294 0.265 0.001 0.52-0.105 0.706-0.294l12.006-12.005c0.39-0.38 0.398-1.004 0.018-1.394z"></path>
        </symbol>
        <symbol id="icon-Vector-1" viewBox="0 0 26 32">
            <path fill="#fff" style="fill: var(--color1, #fff)" d="M24.815 18.076l-19.053 13.236c-2.245 1.562-5.762 0.293-5.762-2.078v-26.472c-0.001-0.531 0.191-1.050 0.553-1.496s0.878-0.8 1.486-1.019c0.608-0.219 1.284-0.295 1.944-0.217s1.28 0.305 1.782 0.654l19.046 13.236c0.373 0.259 0.673 0.578 0.878 0.937s0.311 0.748 0.311 1.141c0 0.394-0.106 0.783-0.311 1.141s-0.504 0.678-0.878 0.937h0.004z"></path>
        </symbol>
        <symbol id="icon-plus" viewBox="0 0 32 32">
        <path fill="#fff" style="fill: var(--color1, #fff)" d="M16 0c0.53 0 1.039 0.211 1.414 0.586s0.586 0.884 0.586 1.414v12h12c0.53 0 1.039 0.211 1.414 0.586s0.586 0.884 0.586 1.414c0 0.53-0.211 1.039-0.586 1.414s-0.884 0.586-1.414 0.586h-12v12c0 0.53-0.211 1.039-0.586 1.414s-0.884 0.586-1.414 0.586c-0.53 0-1.039-0.211-1.414-0.586s-0.586-0.884-0.586-1.414v-12h-12c-0.53 0-1.039-0.211-1.414-0.586s-0.586-0.884-0.586-1.414c0-0.53 0.211-1.039 0.586-1.414s0.884-0.586 1.414-0.586h12v-12c0-0.53 0.211-1.039 0.586-1.414s0.884-0.586 1.414-0.586z"></path>
        </symbol>
        <symbol id="icon-minus" viewBox="0 0 32 32">
        <path d="M0 13v6c0 0.552 0.448 1 1 1h30c0.552 0 1-0.448 1-1v-6c0-0.552-0.448-1-1-1h-30c-0.552 0-1 0.448-1 1z"></path>
        </symbol>
        <symbol id="icon-cup" viewBox="0 0 32 32">
        <path fill="#6cd78a" style="fill: var(--color1, #6cd78a)" d="M25.65 4.605c0.021-0.981-0.017-1.601-0.017-1.601h-19.268c0 0-0.036 0.62-0.016 1.601h-6.35v1.047c0 0.239 0.040 5.877 3.52 8.965 1.452 1.288 3.262 1.936 5.397 1.937 0.323 0 0.655-0.022 0.991-0.051 1.213 1.661 2.614 2.824 4.189 3.403v4.599h-4.626v2.881h-1.528v1.615h16.114v-1.614h-1.529v-2.881h-4.626v-4.599c1.575-0.579 2.977-1.742 4.189-3.403 0.338 0.029 0.67 0.050 0.993 0.050 2.133-0.002 3.944-0.649 5.396-1.938 3.479-3.088 3.52-8.726 3.52-8.965v-1.046h-6.35zM4.917 13.056c-1.988-1.759-2.575-4.77-2.749-6.357h4.302c0.182 1.977 0.61 4.441 1.599 6.606 0.181 0.397 0.371 0.774 0.566 1.142-1.483-0.057-2.73-0.519-3.718-1.392zM27.083 13.056c-0.986 0.873-2.235 1.335-3.717 1.392 0.195-0.367 0.385-0.745 0.566-1.142 0.988-2.166 1.416-4.629 1.597-6.606h4.302c-0.174 1.586-0.761 4.597-2.749 6.357z"></path>
        </symbol>
        <symbol id="icon-gear" viewBox="0 0 32 32">
        <path fill="#6cd78a" style="fill: var(--color1, #6cd78a)" d="M31.29 13.216l-3.671-0.903c-0.221-0.696-0.504-1.371-0.847-2.016 0.551-0.917 1.709-2.848 1.709-2.848 0.222-0.369 0.163-0.841-0.141-1.145l-2.651-2.651c-0.304-0.305-0.775-0.363-1.145-0.141l-2.853 1.709c-0.642-0.34-1.313-0.621-2.004-0.84l-0.903-3.671c-0.104-0.417-0.479-0.711-0.909-0.711h-3.75c-0.43 0-0.806 0.293-0.909 0.71 0 0-0.625 2.562-0.902 3.67-0.737 0.233-1.449 0.537-2.128 0.906l-2.958-1.775c-0.37-0.22-0.84-0.163-1.145 0.141l-2.651 2.651c-0.304 0.304-0.363 0.776-0.141 1.145l1.829 3.055c-0.295 0.581-0.542 1.187-0.739 1.806l-3.671 0.905c-0.417 0.104-0.711 0.479-0.711 0.909v3.75c0 0.43 0.293 0.806 0.71 0.909l3.671 0.903c0.223 0.706 0.512 1.392 0.862 2.050l-1.637 2.728c-0.222 0.369-0.163 0.841 0.141 1.145l2.651 2.651c0.303 0.303 0.775 0.361 1.145 0.141 0 0 1.836-1.101 2.735-1.639 0.651 0.347 1.332 0.633 2.034 0.856l0.902 3.67c0.103 0.418 0.479 0.711 0.909 0.711h3.75c0.43 0 0.805-0.293 0.909-0.71l0.902-3.67c0.722-0.229 1.418-0.525 2.080-0.883 0.924 0.554 2.778 1.666 2.778 1.666 0.369 0.221 0.841 0.164 1.145-0.141l2.651-2.651c0.304-0.304 0.363-0.776 0.141-1.145l-1.685-2.808c0.332-0.631 0.608-1.291 0.823-1.97l3.671-0.903c0.418-0.104 0.711-0.479 0.711-0.909v-3.75c0-0.43-0.293-0.805-0.71-0.909zM16 22.563c-3.618 0-6.563-2.944-6.563-6.563s2.944-6.563 6.563-6.563c3.618 0 6.563 2.944 6.563 6.563s-2.944 6.563-6.563 6.563z"></path>
        </symbol>
        <symbol id="icon-star" viewBox="0 0 31 32">
        <path fill="#6cd78a" style="fill: var(--color1, #6cd78a)" d="M15.36 23.936l-9.028 4.747 1.724-10.053-7.304-7.12 10.094-1.467 4.514-9.147 4.514 9.147 10.094 1.467-7.304 7.12 1.724 10.053-9.028-4.747z"></path>
        </symbol>
        <symbol id="icon-Component-mashine" viewBox="0 0 32 32">
        <path fill="#6cd78a" style="fill: var(--color1, #6cd78a)" d="M19.465 2.639c0-1.455-1.184-2.639-2.639-2.639h-11.179c-1.455 0-2.639 1.184-2.639 2.639v0.784h16.457v-0.784z"></path>
        <path fill="#6cd78a" style="fill: var(--color1, #6cd78a)" d="M0.004 32h22.326v-26.765h-22.326v26.765zM3.669 10.117h14.958v10.327h-14.958v-10.327zM3.669 23.314h14.958v2.256c0 1.867-1.519 3.385-3.385 3.385h-8.188c-1.867 0-3.385-1.519-3.385-3.385v-2.256z"></path>
        <path fill="#6cd78a" style="fill: var(--color1, #6cd78a)" d="M7.055 27.085h8.187c0.836 0 1.516-0.68 1.516-1.515v-0.386h-11.219v0.386c0 0.836 0.68 1.515 1.516 1.515z"></path>
        <path fill="#6cd78a" style="fill: var(--color1, #6cd78a)" d="M14.265 11.986h2.493v6.588h-2.493v-6.588z"></path>
        <path fill="#6cd78a" style="fill: var(--color1, #6cd78a)" d="M5.54 11.986h2.493v6.588h-2.493v-6.588z"></path>
        <path fill="#6cd78a" style="fill: var(--color1, #6cd78a)" d="M9.902 11.986h2.493v6.588h-2.493v-6.588z"></path>
        <path fill="#6cd78a" style="fill: var(--color1, #6cd78a)" d="M28.122 14.578v9.997h-1.913v-4.023h-2.066v9.413h2.066v-3.52h3.783v-11.872c-0.305 0.067-0.621 0.104-0.946 0.104-0.317 0-0.626-0.035-0.924-0.099z"></path>
        <path fill="#6cd78a" style="fill: var(--color1, #6cd78a)" d="M29.046 12.864c1.629 0 2.95-1.321 2.95-2.95s-1.321-2.95-2.95-2.95c-1.629 0-2.95 1.321-2.95 2.95s1.321 2.95 2.95 2.95z"></path>
        </symbol>
        <symbol id="icon-bask" viewBox="0 0 32 32">
        <path fill="#6cd78a" style="fill: var(--color1, #6cd78a)" d="M31.466 16.862c-1.719-5.672-7.174-9.543-13.713-9.657v-6.63c0-0.307-0.262-0.575-0.561-0.575-0.112 0-0.224 0.038-0.336 0.115l-16.628 12.34c-0.262 0.192-0.299 0.537-0.112 0.805 0.037 0.038 0.075 0.077 0.112 0.115l16.628 12.263c0.261 0.192 0.598 0.115 0.785-0.115 0.075-0.115 0.112-0.23 0.112-0.345v-6.592c4.035 0 7.436 1.955 8.631 4.905 1.009 2.529 0.187 5.25-2.205 7.511-0.224 0.23-0.262 0.575-0.037 0.805 0.112 0.115 0.262 0.192 0.411 0.192h0.448c0.112 0 0.224-0.038 0.299-0.115 5.493-3.717 7.847-9.504 6.165-15.023z"></path>
        </symbol>
        <symbol id="icon-Vector-ok" viewBox="0 0 38 32">
        <path fill="#fff" style="fill: var(--color2, #fff)" d="M34.86 7.72l-18.72 20.52c-1.26 1.44-3.42 1.44-4.68 0l-7.92-8.82c-1.080-1.26-1.080-3.24 0.18-4.5 1.26-1.080 3.24-1.080 4.5 0.18l5.58 6.3 16.38-17.82c1.26-1.26 3.24-1.44 4.5-0.18 1.26 1.080 1.26 3.24 0.18 4.32z"></path>
        </symbol>
        <symbol id="icon-close" viewBox="0 0 32 32">
        <path fill="#fff" style="fill: var(--color2, #fff)" d="M29.14 29.14c-1.080 1.080-2.88 1.080-3.96 0l-9.18-9.18-9.18 9.18c-1.080 1.080-2.88 1.080-3.96 0s-1.080-2.88 0-3.96l9.18-9.18-9.18-9.18c-1.080-1.080-1.080-2.88 0-3.96s2.88-1.080 3.96 0l9.18 9.18 9.18-9.18c1.080-1.080 2.88-1.080 3.96 0s1.080 2.88 0 3.96l-9.18 9.18 9.18 9.18c1.080 1.080 1.080 2.88 0 3.96z"></path>
        </symbol>
  

        <symbol id="icon-bar-chart" viewBox="0 0 32 32">
        <path fill="#8abb82" style="fill: var(--color1, #8abb82)" d="M0 16.875h6.594v15.125h-6.594v-15.125z"></path>
        <path fill="#8abb82" style="fill: var(--color1, #8abb82)" d="M8.469 11.25h6.594v20.75h-6.594v-20.75z"></path>
        <path fill="#8abb82" style="fill: var(--color1, #8abb82)" d="M16.938 5.625h6.594v26.375h-6.594v-26.375z"></path>
        <path fill="#8abb82" style="fill: var(--color1, #8abb82)" d="M25.406 0h6.594v32h-6.594v-32z"></path>
        </symbol>
        <symbol id="icon-coin" viewBox="0 0 32 32"><path fill="#8abb82" style="fill:var(--color1, #8abb82)" d="M16 0C7.164 0 0 7.164 0 16s7.164 16 16 16 16-7.164 16-16S24.836 0 16 0zm4.596 22.308a5.152 5.152 0 0 1-2.667 1.712c-.461.125-.672.369-.645.849.02.474 0 .942-.007 1.416 0 .421-.217.645-.632.659-.27.007-.54.013-.81.013-.237 0-.474 0-.711-.007-.448-.007-.658-.263-.658-.698-.007-.342-.007-.691-.007-1.034-.007-.764-.033-.79-.764-.909-.935-.151-1.857-.362-2.713-.777-.672-.329-.744-.494-.553-1.205.145-.527.29-1.053.454-1.574.119-.382.23-.553.435-.553.118 0 .27.059.474.165.948.494 1.956.77 3.016.902.178.02.356.033.533.033a3.56 3.56 0 0 0 1.442-.296c1.179-.514 1.363-1.876.369-2.693-.336-.277-.724-.481-1.126-.658-1.034-.454-2.107-.797-3.081-1.383-1.58-.948-2.581-2.245-2.463-4.168.132-2.173 1.363-3.529 3.358-4.253.823-.296.83-.29.83-1.146 0-.29-.007-.579.007-.876.02-.645.125-.757.77-.777h.75c1.225 0 1.225.053 1.231 1.376.007.974.007.974.975 1.126a8.578 8.578 0 0 1 2.133.639c.375.165.52.428.402.83-.171.593-.336 1.192-.52 1.778-.119.356-.23.52-.441.52-.118 0-.263-.046-.448-.138a6.73 6.73 0 0 0-2.983-.685c-.132 0-.27.007-.402.013-.309.02-.612.059-.902.184-1.027.448-1.192 1.58-.316 2.278.441.356.948.606 1.468.823.909.375 1.817.737 2.68 1.212 2.713 1.514 3.45 4.958 1.521 7.302z"/></symbol>
        <symbol id="icon-handshake" viewBox="0 0 32 32"><path fill="#8abb82" style="fill:var(--color1, #8abb82)" d="M24.683 4.715c.565-.441 1.028-.685 1.465-.712.73-.047 1.385.512 2.323 1.77l2.406 3.217c.871 1.164 1.191 1.884 1.111 2.489-.065.497-.419.979-1.114 1.518l-.803.625-6.212-8.266.824-.639zM5.947 4.011c-.728-.055-1.392.493-2.348 1.739L1.153 8.936C.268 10.085-.063 10.8.01 11.406c.059.498.405.986.749 1.262l1.16.927 6.3-8.2-.815-.653c-.561-.447-1.02-.696-1.456-.73zm7.812 1.649c.31-.033.604-.064.87-.088.984-.063 1.729-.039 2.756.358a5.488 5.488 0 0 0-.845.223l-3.995 1.474a16.24 16.24 0 0 1-.484.07h-.003c-.992.14-1.594.225-1.908 1.038-.224.587-.054 1.316.445 1.906.828.979 2.261 1.34 3.779.975l2.253-.294c.919-.123 1.711.526 2.477 1.154l.005.004 6.69 5.354c.338.268.489.743.396 1.231-.102.52-.455.981-.925 1.201-.445.212-.929.175-1.099.041-.003 0-3.42-2.733-3.42-2.733a.439.439 0 0 0-.621.075.46.46 0 0 0 .076.636l2.251 1.797c.339.273.491.744.396 1.232a1.716 1.716 0 0 1-.921 1.206c-.449.209-.935.172-1.273-.097l-2.25-1.799a.43.43 0 0 0-.619.078.454.454 0 0 0 .076.631l1.548 1.239c.336.271.487.743.393 1.231a1.709 1.709 0 0 1-.922 1.202c-.447.21-.933.174-1.103.038l-1.711-1.371a.437.437 0 0 0-.62.078.459.459 0 0 0 .076.633l1.423 1.139c.043.167.055.348.017.535-.09.447-.396.846-.801 1.042-.374.181-.774.157-1.049-.06l-1.122-.898c.39-.504.493-1.206.256-1.875a2.4 2.4 0 0 0-1.51-1.462 2.103 2.103 0 0 0-.237-.059c.136-.447.13-.945-.038-1.43a2.6 2.6 0 0 0-1.663-1.613 2.222 2.222 0 0 0-.966-.076 2.32 2.32 0 0 0-.124-.975 2.589 2.589 0 0 0-1.666-1.617 2.235 2.235 0 0 0-.966-.073 2.318 2.318 0 0 0-.12-.978 2.595 2.595 0 0 0-1.667-1.617c-.778-.235-1.577-.042-2.106.499a3.567 3.567 0 0 0-.581-.697l6.326-8.233c.687.127 2.038.025 4.475-.235l.357-.038zm9.377.212c-.956.535-2.285.631-3.58.724-.979.067-1.99.138-2.716.406l-4.037 1.489a.345.345 0 0 1-.084.021c-.195.031-.375.057-.537.079-.983.139-1.096.181-1.21.472-.103.269.01.657.29.986.228.271 1.12 1.115 2.955.681l2.299-.304c1.287-.166 2.319.673 3.144 1.351l6.182 4.946.005-.002c1.222-.511 2.495-1.177 3.578-2.48l-6.288-8.368zM2.461 16.945l1.479-1.59c.258-.279.718-.257 1.097-.126.497.149.914.552 1.086 1.053.164.47.082.959-.214 1.273v.002l-1.483 1.589c-.147.159-.623.268-1.092.128a1.693 1.693 0 0 1-1.087-1.055c-.164-.468-.082-.956.214-1.275zm4.088 1.233L5.215 19.61c-.294.317-.376.809-.214 1.281.174.495.589.9 1.086 1.051.47.143.946.031 1.095-.126l1.481-1.589c.296-.319.378-.81.214-1.28a1.697 1.697 0 0 0-1.087-1.051c-.457-.149-.963-.017-1.241.282zm1.419 4.1 1.445-1.549c.273-.296.736-.291 1.131-.165.494.15.912.553 1.086 1.052.164.47.082.959-.214 1.277l-1.338 1.435c-.296.314-.768.424-1.238.283a1.699 1.699 0 0 1-1.086-1.052c-.164-.47-.08-.961.214-1.281zm2.611 3.416a1.205 1.205 0 0 1-.06-.531l1.493-1.602c.594.107 1.057.346 1.403 1.009.141.397.08.805-.159 1.061l-.827.887c-.12.13-.514.213-.91.088a1.493 1.493 0 0 1-.94-.912z"/></symbol>
        <symbol id="icon-language" viewBox="0 0 32 32"><path fill="#8abb82" style="fill:var(--color1, #8abb82)" d="M8.67 8.563h-.401l-.75 3.75H9.42l-.75-3.75zM23.835 16.063a9.807 9.807 0 0 0 1.539 2.717c.596-.749 1.197-1.629 1.602-2.717h-3.141z"/><path fill="#8abb82" style="fill:var(--color1, #8abb82)" d="M29.188 5.688H17.545l2.428 19.48c.043.797-.175 1.547-.695 2.134L15.167 32h14.021A2.815 2.815 0 0 0 32 29.188V8.563c0-1.551-1.262-2.875-2.812-2.875zm0 10.375h-.25a11.887 11.887 0 0 1-2.259 4.106c.689.63 1.425 1.146 2.157 1.725a.936.936 0 1 1-1.171 1.462c-.796-.628-1.542-1.153-2.289-1.839-.747.685-1.431 1.211-2.227 1.839a.936.936 0 1 1-1.172-1.462c.732-.579 1.406-1.095 2.095-1.725-.879-1.056-1.663-2.395-2.196-4.106h-.25a.937.937 0 1 1 0-1.876h2.812v-.938a.937.937 0 1 1 1.875 0v.938h2.875c.518 0 .937.419.937.938s-.419.938-.937.938z"/><path fill="#8abb82" style="fill:var(--color1, #8abb82)" d="M15.26 2.464A2.817 2.817 0 0 0 12.47 0H2.813A2.816 2.816 0 0 0 0 2.813v20.75a2.815 2.815 0 0 0 2.813 2.812h14.784c.273-.313.503-.508.512-.916.003-.102-2.836-22.893-2.849-22.995zm-3.764 15.455a.937.937 0 0 1-1.103-.735l-.599-2.997H7.143l-.599 2.997a.937.937 0 0 1-1.838-.368l1.875-9.375a.937.937 0 0 1 .919-.753h1.938c.447 0 .831.316.919.753l1.875 9.375a.937.937 0 0 1-.735 1.103zM10.953 28.25l.161 1.286c.107.861.68 1.74 1.621 2.178l3.147-3.465h-4.929z"/></symbol>
        <symbol id="icon-Layer-2" viewBox="0 0 32 32"><path fill="#8abb82" style="fill:var(--color1, #8abb82)" d="M26.5 4H24V2.667a1.335 1.335 0 0 0-2.277-.943c-.25.25-.391.589-.391.943V4h-4V2.667a1.335 1.335 0 0 0-2.277-.943c-.25.251-.391.589-.391.943V4h-4V2.667a1.335 1.335 0 0 0-2.277-.943c-.25.251-.391.589-.391.943V4h-2.5a4.17 4.17 0 0 0-4.167 4.167V12h29.333V8.167A4.17 4.17 0 0 0 26.495 4zM1.333 26.5A4.17 4.17 0 0 0 5.5 30.667h21a4.17 4.17 0 0 0 4.167-4.167V14.667H1.334V26.5zm9.724-5.357a1.333 1.333 0 0 1 1.886 0l1.724 1.723 4.391-4.389a1.332 1.332 0 0 1 1.869.017 1.335 1.335 0 0 1 .017 1.869l-5.333 5.333a1.333 1.333 0 0 1-1.886 0l-2.667-2.667a1.333 1.333 0 0 1 0-1.886z"/></symbol>
        <symbol id="icon-location" viewBox="0 0 32 32"><path fill="#8abb82" style="fill:var(--color1, #8abb82)" d="M16 0C10.377 0 5.687 4.529 5.687 10.313c0 2.2.661 4.162 1.93 6l7.593 11.849a.937.937 0 0 0 1.578 0l7.626-11.889a10.263 10.263 0 0 0 1.897-5.96C26.311 4.627 21.685 0 15.998 0zm0 15c-2.585 0-4.688-2.103-4.688-4.688S13.415 5.624 16 5.624c2.585 0 4.687 2.103 4.687 4.688S18.584 15 16 15z"/><path fill="#8abb82" style="fill:var(--color1, #8abb82)" d="m23.329 21.543-4.721 7.38c-1.222 1.905-4.002 1.899-5.218.002l-4.728-7.38c-4.16.962-6.725 2.724-6.725 4.829 0 3.654 7.245 5.625 14.063 5.625s14.063-1.971 14.063-5.625c0-2.107-2.568-3.87-6.733-4.831z"/></symbol>
        <symbol id="icon-mobile-phone" viewBox="0 0 32 32"><path fill="#8abb82" style="fill:var(--color1, #8abb82)" d="M23.201 0h-14.4a3.21 3.21 0 0 0-3.2 3.2v25.6c0 1.76 1.44 3.2 3.2 3.2h14.4c1.76 0 3.2-1.44 3.2-3.2V3.2c0-1.76-1.44-3.2-3.2-3.2zm-6.4 28.8h-1.6c-.8 0-1.6-.64-1.6-1.6 0-.8.8-1.6 1.6-1.6h1.6c.96 0 1.6.8 1.6 1.6 0 .96-.64 1.6-1.6 1.6zm6.4-6.4h-14.4V3.2h14.4v19.2z"/></symbol>
        <symbol id="icon-overviev" viewBox="0 0 32 32"><path fill="#8abb82" style="fill:var(--color1, #8abb82)" d="M18 1.458v5.366h5.365L18 1.458z"/><path fill="#8abb82" style="fill:var(--color1, #8abb82)" d="M22.324 11.529c.535 0 1.057.06 1.558.174V8.588h-6.765a.882.882 0 0 1-.882-.882V.941H4.176A3.238 3.238 0 0 0 .941 4.176v23.647a3.238 3.238 0 0 0 3.235 3.235h16.471a3.238 3.238 0 0 0 3.235-3.235v-2.35a7.079 7.079 0 0 1-1.558.174c-3.892 0-7.059-3.167-7.059-7.059s3.167-7.059 7.059-7.059zM13 22.706H5.353a.882.882 0 0 1 0-1.764H13a.882.882 0 0 1 0 1.764zm0-3.53H5.353a.882.882 0 0 1 0-1.764H13a.882.882 0 0 1 0 1.764zm0-3.529H5.353a.882.882 0 0 1 0-1.764H13a.882.882 0 0 1 0 1.764zm2.353-3.529h-10a.882.882 0 0 1 0-1.764h10a.882.882 0 0 1 0 1.764z"/><path fill="#8abb82" style="fill:var(--color1, #8abb82)" d="m30.8 25.817-4.163-4.163a5.267 5.267 0 0 0 .981-3.066c0-2.919-2.375-5.294-5.294-5.294s-5.294 2.375-5.294 5.294 2.375 5.294 5.294 5.294c1.142 0 2.2-.363 3.066-.98l4.163 4.163a.88.88 0 0 0 1.248 0 .882.882 0 0 0 0-1.248z"/></symbol>
        <symbol id="icon-system-update" viewBox="0 0 32 32"><path fill="#8abb82" style="fill:var(--color1, #8abb82)" d="M27.999 16a2.635 2.635 0 0 1 .96-2.027A2.671 2.671 0 0 0 29.772 11a15.349 15.349 0 0 0-1.067-2.333 15.143 15.143 0 0 0-1.493-2.107 2.677 2.677 0 0 0-2.986-.774 2.606 2.606 0 0 1-2.227-.174 2.65 2.65 0 0 1-1.28-1.84 2.706 2.706 0 0 0-2.2-2.214 14.559 14.559 0 0 0-5.04 0 2.675 2.675 0 0 0-2.2 2.214 2.689 2.689 0 0 1-1.28 1.84 2.649 2.649 0 0 1-2.227.186 2.692 2.692 0 0 0-3.013.8 14.592 14.592 0 0 0-2.533 4.36 2.724 2.724 0 0 0 .813 3.014 2.626 2.626 0 0 1 .96 2.026 2.616 2.616 0 0 1-.96 2.026 2.671 2.671 0 0 0-.813 2.973c.29.806.647 1.587 1.067 2.333.437.744.936 1.448 1.493 2.107a2.707 2.707 0 0 0 2.986.773 2.606 2.606 0 0 1 3.071.951c.221.318.37.68.436 1.062a2.673 2.673 0 0 0 2.2 2.214c.823.148 1.657.224 2.493.227a14.797 14.797 0 0 0 2.547-.227 2.675 2.675 0 0 0 2.2-2.214 2.702 2.702 0 0 1 1.28-1.84 2.665 2.665 0 0 1 2.227-.187 2.643 2.643 0 0 0 3.013-.8 14.417 14.417 0 0 0 2.533-4.36 2.725 2.725 0 0 0-.814-3.014 2.64 2.64 0 0 1-.96-2.027zm-17.324 3.209a1.338 1.338 0 0 1-1.223.36 1.337 1.337 0 0 1-.966-.832A7.707 7.707 0 0 1 8 15.999c.002-2.121.846-4.155 2.346-5.654S13.879 8.002 16 7.999a7.707 7.707 0 0 1 2.738.486 1.336 1.336 0 0 1 .744.698 1.327 1.327 0 0 1 .032 1.02 1.338 1.338 0 0 1-1.205.861 1.36 1.36 0 0 1-.513-.085A5.049 5.049 0 0 0 16 10.665a5.343 5.343 0 0 0-5.302 4.749l.36-.358a1.332 1.332 0 0 1 2.259.947c.003.349-.131.686-.374.938l-2.267 2.267zM15.999 24a7.681 7.681 0 0 1-2.738-.486 1.333 1.333 0 1 1 .943-2.495 5.071 5.071 0 0 0 1.796.314 5.338 5.338 0 0 0 5.302-4.749l-.36.358a1.332 1.332 0 0 1-1.869-.016 1.335 1.335 0 0 1-.017-1.869l2.267-2.267a1.346 1.346 0 0 1 1.224-.361 1.337 1.337 0 0 1 .966.832c.327.876.492 1.803.487 2.738a8.007 8.007 0 0 1-8 8z"/></symbol>
        <symbol id="icon-user" viewBox="0 0 32 32"><path fill="#8abb82" style="fill:var(--color1, #8abb82)" d="M15.772 15.415c2.118 0 3.951-.76 5.45-2.258s2.258-3.332 2.258-5.449-.759-3.951-2.258-5.449S17.89.001 15.773.001c-2.118 0-3.951.76-5.449 2.258S8.066 5.591 8.066 7.708c0 2.118.76 3.951 2.258 5.45s3.332 2.258 5.449 2.258zM29.258 24.606a19.16 19.16 0 0 0-.259-2.022 15.96 15.96 0 0 0-.497-2.033 10.053 10.053 0 0 0-.836-1.896 7.15 7.15 0 0 0-1.26-1.642 5.548 5.548 0 0 0-1.81-1.137 6.248 6.248 0 0 0-2.311-.418c-.327 0-.643.134-1.253.531-.375.245-.815.528-1.305.841-.419.267-.987.517-1.689.744-.684.221-1.379.334-2.065.334s-1.38-.112-2.065-.334c-.701-.226-1.269-.477-1.687-.744-.486-.31-.925-.593-1.306-.842-.609-.397-.926-.531-1.252-.531-.832 0-1.609.141-2.311.419a5.563 5.563 0 0 0-1.811 1.137 7.193 7.193 0 0 0-1.26 1.642c-.347.612-.629 1.25-.836 1.896a15.96 15.96 0 0 0-.497 2.033 18.82 18.82 0 0 0-.259 2.023 27.733 27.733 0 0 0-.064 1.89c0 1.67.531 3.023 1.578 4.02C5.237 31.501 6.606 32 8.27 32h15.408c1.664 0 3.032-.499 4.066-1.483 1.047-.997 1.578-2.349 1.578-4.02 0-.645-.022-1.281-.065-1.89z"/></symbol>
        <symbol id="icon-Vector" viewBox="0 0 28 32"><path fill="#8abb82" style="fill:var(--color1, #8abb82)" d="M26.946 18.306a.983.983 0 0 0-.71-.298h-5.208a.736.736 0 0 1-.736-.736V.985a.986.986 0 0 0-.986-.986H9.169a.986.986 0 0 0-.986.986v16.287a.736.736 0 0 1-.736.736H2.224a.986.986 0 0 0-.706 1.692l12.005 12.005a.985.985 0 0 0 .692.294.986.986 0 0 0 .706-.294L26.927 19.7a.986.986 0 0 0 .018-1.394z"/></symbol>
        <symbol id="icon-high-quality" viewBox="0 0 32 32">
            <path fill="#8abb82" style="fill: var(--color1, #8abb82)" d="M17.895 1.82l1.906 1.428c0.521 0.391 1.068 0.588 1.719 0.626l2.377 0.132c1.422 0.080 2.578 1.049 2.903 2.436l0.542 2.318c0.149 0.635 0.441 1.14 0.916 1.586l1.735 1.628c1.040 0.974 1.301 2.46 0.658 3.733l-1.074 2.123c-0.293 0.581-0.395 1.156-0.316 1.803l0.283 2.364c0.169 1.413-0.587 2.72-1.895 3.282l-2.188 0.937c-0.587 0.246-1.066 0.652-1.395 1.163l-0.007 0.012-1.301 1.991c-0.564 0.871-1.531 1.44-2.631 1.44-0.333 0-0.653-0.052-0.954-0.148l0.022 0.006-2.277-0.688c-0.274-0.090-0.589-0.142-0.916-0.142s-0.642 0.052-0.937 0.148l0.021-0.006-2.277 0.688c-0.279 0.090-0.599 0.142-0.932 0.142-1.1 0-2.067-0.569-2.624-1.428l-0.007-0.012-1.301-1.991c-0.337-0.523-0.816-0.929-1.383-1.168l-0.020-0.007-2.187-0.937c-1.139-0.483-1.923-1.592-1.923-2.883 0-0.141 0.009-0.28 0.027-0.416l-0.002 0.016 0.284-2.364c0.016-0.118 0.026-0.255 0.026-0.394 0-0.514-0.128-0.999-0.354-1.423l0.008 0.016-1.070-2.124c-0.22-0.417-0.35-0.911-0.35-1.436 0-0.908 0.387-1.725 1.005-2.296l0.002-0.002 1.735-1.628c0.475-0.444 0.766-0.949 0.916-1.582l0.542-2.318c0.313-1.359 1.481-2.368 2.896-2.435l0.007-0 2.377-0.133c0.651-0.036 1.198-0.236 1.719-0.626l1.906-1.428c1.141-0.853 2.649-0.853 3.79 0zM14.786 16.816l4.497-4.543c0.245-0.229 0.574-0.369 0.935-0.369 0.757 0 1.371 0.614 1.371 1.371 0 0.357-0.137 0.683-0.36 0.926-1.826 1.844-3.637 3.698-5.47 5.529v0c-0.248 0.248-0.592 0.402-0.971 0.402s-0.722-0.154-0.971-0.402l-3.042-3.040c-0.248-0.248-0.402-0.592-0.402-0.971 0-0.758 0.615-1.373 1.373-1.373 0.379 0 0.722 0.154 0.971 0.402l2.068 2.069zM16 5.778c-0.004 0-0.009 0-0.014 0-2.819 0-5.37 1.144-7.214 2.994l-0 0c-1.85 1.845-2.994 4.396-2.994 7.215 0 0.005 0 0.010 0 0.015v-0.001c0 2.823 1.145 5.378 2.994 7.228 1.845 1.85 4.396 2.994 7.215 2.994 0.005 0 0.010 0 0.015 0h-0.001c0.004 0 0.009 0 0.014 0 2.819 0 5.37-1.144 7.215-2.994l0-0c1.85-1.845 2.994-4.396 2.994-7.215 0-0.005 0-0.010 0-0.014v0.001c0-0.004 0-0.009 0-0.014 0-2.819-1.144-5.37-2.994-7.214l-0-0c-1.845-1.85-4.396-2.994-7.215-2.994-0.005 0-0.010 0-0.014 0h0.001zM22.521 9.479c-1.664-1.669-3.966-2.702-6.509-2.702-0.004 0-0.008 0-0.012 0h0.001c-2.546 0-4.853 1.033-6.521 2.702-1.669 1.665-2.702 3.967-2.702 6.51 0 0.004 0 0.008 0 0.011v-0.001c0 2.546 1.033 4.853 2.702 6.521 1.665 1.669 3.967 2.702 6.51 2.702 0.004 0 0.008 0 0.011 0h-0.001c0.003 0 0.008 0 0.012 0 2.543 0 4.845-1.033 6.509-2.702l0-0c1.669-1.665 2.702-3.967 2.702-6.51 0-0.004 0-0.008 0-0.011v0.001c0-0.003 0-0.008 0-0.012 0-2.543-1.033-4.845-2.702-6.509l-0-0z"></path>
            </symbol>
        <symbol id="icon-Vector-1" viewBox="0 0 23 32"><path stroke-width=".914" d="M12.901 25.292V3.265c0-.386-.159-.754-.437-1.022s-.65-.415-1.036-.415-.758.147-1.036.415a1.419 1.419 0 0 0-.437 1.022v22.027l-5.617-5.418a1.506 1.506 0 0 0-2.074 0 1.42 1.42 0 0 0-.438 1.023 1.439 1.439 0 0 0 .438 1.023l8.125 7.836.317-.329 2.192-4.134zm0 0 5.617-5.418a1.506 1.506 0 0 1 2.074 0 1.423 1.423 0 0 1 .437 1.023 1.418 1.418 0 0 1-.437 1.023l-8.125 7.836.436-4.463z"/>
        </symbol>
        <symbol id="icon-Group" viewBox="0 0 30 32">
            <path fill="#8abb82" style="fill: var(--color1, #8abb82)" d="M17.059 1.458v5.366h5.365l-5.365-5.366z"></path>
            <path fill="#8abb82" style="fill: var(--color1, #8abb82)" d="M21.383 11.529c0.535 0 1.057 0.060 1.558 0.174v-3.115h-6.765c-0.487 0-0.882-0.395-0.882-0.882v-6.765h-12.059c-1.784 0-3.235 1.451-3.235 3.235v23.647c0 1.784 1.451 3.235 3.235 3.235h16.471c1.784 0 3.235-1.451 3.235-3.235v-2.35c-0.501 0.113-1.023 0.174-1.558 0.174-3.892 0-7.059-3.167-7.059-7.059s3.167-7.059 7.059-7.059zM12.059 22.706h-7.647c-0.487 0-0.882-0.395-0.882-0.882s0.395-0.882 0.882-0.882h7.647c0.487 0 0.882 0.395 0.882 0.882s-0.395 0.882-0.882 0.882zM12.059 19.176h-7.647c-0.487 0-0.882-0.395-0.882-0.882s0.395-0.882 0.882-0.882h7.647c0.487 0 0.882 0.395 0.882 0.882s-0.395 0.882-0.882 0.882zM12.059 15.647h-7.647c-0.487 0-0.882-0.395-0.882-0.882s0.395-0.882 0.882-0.882h7.647c0.487 0 0.882 0.395 0.882 0.882s-0.395 0.882-0.882 0.882zM14.412 12.118h-10c-0.487 0-0.882-0.395-0.882-0.882s0.395-0.882 0.882-0.882h10c0.487 0 0.882 0.395 0.882 0.882s-0.395 0.882-0.882 0.882z"></path>
            <path fill="#8abb82" style="fill: var(--color1, #8abb82)" d="M29.859 25.817l-4.163-4.163c0.617-0.866 0.981-1.924 0.981-3.066 0-2.919-2.375-5.294-5.294-5.294s-5.294 2.375-5.294 5.294 2.375 5.294 5.294 5.294c1.142 0 2.2-0.363 3.066-0.98l4.163 4.163c0.172 0.172 0.398 0.258 0.624 0.258s0.452-0.086 0.624-0.258c0.345-0.345 0.345-0.903 0-1.248z"></path>
            </symbol>
            <symbol id="icon-list" viewBox="0 0 30 32">
            <path fill="#8abb82" style="fill: var(--color1, #8abb82)" d="M19.765 2.824h-2.044c-0.388-1.096-1.434-1.882-2.662-1.882s-2.274 0.787-2.664 1.882h-2.042c-0.52 0-0.941 0.422-0.941 0.941v3.765c0 0.52 0.422 0.941 0.941 0.941h9.412c0.52 0 0.941-0.422 0.941-0.941v-3.765c0-0.52-0.422-0.941-0.941-0.941z"></path>
            <path fill="#8abb82" style="fill: var(--color1, #8abb82)" d="M24.471 4.706h-1.882v2.824c0 1.557-1.267 2.824-2.824 2.824h-9.412c-1.557 0-2.824-1.267-2.824-2.824v-2.824h-1.882c-1.037 0-1.882 0.845-1.882 1.882v22.588c0 1.056 0.826 1.882 1.882 1.882h18.824c1.056 0 1.882-0.826 1.882-1.882v-22.588c0-1.056-0.826-1.882-1.882-1.882zM14.784 21.372l-3.765 3.765c-0.184 0.183-0.425 0.275-0.666 0.275s-0.482-0.092-0.666-0.275l-1.882-1.882c-0.367-0.367-0.367-0.964 0-1.331s0.964-0.367 1.331 0l1.218 1.216 3.098-3.098c0.367-0.367 0.964-0.367 1.331 0s0.369 0.962 0.002 1.331zM14.784 13.843l-3.765 3.765c-0.184 0.183-0.425 0.275-0.666 0.275s-0.482-0.092-0.666-0.275l-1.882-1.882c-0.367-0.367-0.367-0.964 0-1.331s0.964-0.367 1.331 0l1.218 1.216 3.098-3.098c0.367-0.367 0.964-0.367 1.331 0s0.369 0.962 0.002 1.331zM21.647 23.529h-3.765c-0.52 0-0.941-0.422-0.941-0.941s0.422-0.941 0.941-0.941h3.765c0.52 0 0.941 0.422 0.941 0.941s-0.422 0.941-0.941 0.941zM21.647 16h-3.765c-0.52 0-0.941-0.422-0.941-0.941s0.422-0.941 0.941-0.941h3.765c0.52 0 0.941 0.422 0.941 0.941s-0.422 0.941-0.941 0.941z"></path>
            </symbol>
            <symbol id="icon-Group1" viewBox="0 0 30 32">
        <path fill="#8abb82" style="fill: var(--color1, #8abb82)" d="M13.374 17.665c-2.48 0-9.781 0-9.781 0-0.775 0-1.409 0.634-1.409 1.409v10.576c0 0.775 0.634 1.409 1.409 1.409 0 0 7.453 0 9.945 0 0.331 0 0.331-0.356 0.331-0.356v-12.559c-0 0-0-0.479-0.496-0.479z"></path>
        <path fill="#8abb82" style="fill: var(--color1, #8abb82)" d="M26.526 17.665c0 0-7.328 0-9.771 0-0.595 0-0.506 0.62-0.506 0.62v12.43c0 0-0.005 0.344 0.353 0.344 2.481 0 9.924 0 9.924 0 0.775 0 1.409-0.634 1.409-1.409v-10.576c0-0.775-0.634-1.409-1.409-1.409z"></path>
        <path fill="#8abb82" style="fill: var(--color1, #8abb82)" d="M13.869 9.343c0 0 0-0.477-0.472-0.477-2.825 0-11.396 0-11.396 0-0.775 0-1.409 0.634-1.409 1.409v4.398c0 0.775 0.634 1.409 1.409 1.409 0 0 8.609 0 11.435 0 0.433 0 0.433-0.376 0.433-0.376v-6.363z"></path>
        <path fill="#8abb82" style="fill: var(--color1, #8abb82)" d="M28.116 8.866c0 0-8.574 0-11.432 0-0.435 0-0.435 0.415-0.435 0.415v6.435c0 0 0 0.367 0.529 0.367 2.835 0 11.338 0 11.338 0 0.775 0 1.409-0.634 1.409-1.409v-4.398c0-0.775-0.634-1.409-1.409-1.409z"></path>
        <path fill="#8abb82" style="fill: var(--color1, #8abb82)" d="M9.076 7.824c-0.645 0-1.234-0.051-1.75-0.152-1.312-0.256-2.213-0.755-2.756-1.524-0.486-0.69-0.635-1.54-0.443-2.527 0.338-1.727 1.498-2.679 3.266-2.679 0.374 0 0.785 0.043 1.222 0.129 1.11 0.217 2.531 0.854 3.799 1.703 2.152 1.441 2.259 2.338 2.152 2.886-0.158 0.806-0.911 1.382-2.304 1.761-0.941 0.256-2.102 0.403-3.186 0.403zM7.394 3.2c-0.685 0-0.92 0.191-1.050 0.853-0.106 0.541 0.028 0.73 0.071 0.792 0.183 0.26 0.66 0.476 1.343 0.61 0.369 0.072 0.824 0.11 1.317 0.11 1.083 0 2.038-0.164 2.671-0.344 0.046-0.013 0.118-0.068 0.041-0.113-0.828-0.674-2.343-1.575-3.605-1.822-0.294-0.057-0.56-0.087-0.789-0.087z"></path>
        <path fill="#8abb82" style="fill: var(--color1, #8abb82)" d="M21.075 7.823c0 0 0 0-0 0-1.084 0-2.245-0.147-3.186-0.403-1.393-0.379-2.146-0.955-2.304-1.761-0.107-0.549-0.001-1.445 2.152-2.886 1.268-0.849 2.689-1.486 3.799-1.703 0.437-0.085 0.847-0.129 1.221-0.129 1.769 0 2.929 0.951 3.266 2.679 0.193 0.987 0.044 1.837-0.442 2.527-0.543 0.77-1.444 1.268-2.756 1.524-0.516 0.101-1.105 0.152-1.75 0.152zM18.381 5.094c-0.073 0.043-0.038 0.11 0 0.121 0.633 0.182 1.597 0.35 2.694 0.35 0.493 0 0.948-0.038 1.317-0.11 0.683-0.133 1.16-0.35 1.343-0.61 0.044-0.062 0.177-0.251 0.071-0.792-0.129-0.662-0.365-0.853-1.050-0.853-0.229 0-0.494 0.029-0.789 0.087-1.263 0.247-2.759 1.133-3.587 1.808z"></path>
        </symbol>
        <symbol id="icon-like" viewBox="0 0 30 32">
        <path fill="#8abb82" style="fill: var(--color1, #8abb82)" d="M3.137 14.118c-1.729 0-3.137 1.408-3.137 3.137v10.039c0 1.729 1.408 3.137 3.137 3.137h3.765c0.707 0 1.357-0.238 1.882-0.635v-15.679h-5.647z"></path>
        <path fill="#8abb82" style="fill: var(--color1, #8abb82)" d="M30.117 18.823c0-0.754-0.299-1.457-0.817-1.975 0.586-0.641 0.885-1.501 0.803-2.396-0.147-1.595-1.584-2.845-3.273-2.845h-7.752c0.384-1.166 0.999-3.303 0.999-5.020 0-2.722-2.313-5.020-3.765-5.020-1.304 0-2.235 0.734-2.275 0.764-0.148 0.119-0.235 0.3-0.235 0.491v4.255l-3.614 7.829-0.151 0.077v13.45c1.021 0.482 2.314 0.742 3.137 0.742h11.519c1.367 0 2.563-0.921 2.844-2.192 0.144-0.654 0.060-1.313-0.227-1.885 0.927-0.467 1.551-1.422 1.551-2.511 0-0.444-0.102-0.87-0.295-1.255 0.927-0.467 1.55-1.422 1.55-2.51z"></path>
        </symbol>
        <symbol id="icon-faq" viewBox="0 0 30 32">
        <path fill="#8abb82" style="fill: var(--color1, #8abb82)" d="M15.059 0.941c-8.304 0-15.059 6.755-15.059 15.059s6.755 15.059 15.059 15.059c8.304 0 15.059-6.755 15.059-15.059s-6.755-15.059-15.059-15.059zM15.059 24.784c-0.693 0-1.255-0.562-1.255-1.255s0.562-1.255 1.255-1.255c0.693 0 1.255 0.562 1.255 1.255s-0.562 1.255-1.255 1.255zM17.045 16.806c-0.444 0.205-0.732 0.653-0.732 1.141v0.563c0 0.693-0.561 1.255-1.255 1.255s-1.255-0.562-1.255-1.255v-0.563c0-1.464 0.861-2.807 2.19-3.421 1.279-0.589 2.202-2.151 2.202-2.918 0-1.729-1.407-3.137-3.137-3.137s-3.137 1.408-3.137 3.137c0 0.693-0.561 1.255-1.255 1.255s-1.255-0.562-1.255-1.255c0-3.113 2.534-5.647 5.647-5.647s5.647 2.534 5.647 5.647c0 1.695-1.471 4.188-3.661 5.198z"></path>
        </symbol>
        <symbol id="icon-chat" viewBox="0 0 30 32">
        <path fill="#8abb82" style="fill: var(--color1, #8abb82)" d="M19.6 7.708c-1.7-3.472-5.257-5.767-9.246-5.767-5.708 0-10.353 4.618-10.353 10.294 0 1.543 0.331 3.021 0.985 4.4l-0.968 4.839c-0.123 0.616 0.42 1.16 1.036 1.038l4.899-0.968c0.66 0.313 1.342 0.551 2.043 0.715-1.572-7.443 4.070-14.43 11.604-14.55z"></path>
        <path fill="#8abb82" style="fill: var(--color1, #8abb82)" d="M29.132 24.163c0.169-0.357 0.316-0.72 0.442-1.089h-0.032c2.203-6.465-2.43-13.261-9.268-13.592-0-0-0-0.001-0-0.001-5.884-0.271-10.773 4.44-10.773 10.282 0 5.671 4.609 10.286 10.279 10.294 1.538-0.002 3.012-0.333 4.386-0.985 5.365 1.061 4.946 0.985 5.070 0.985 0.558 0 0.974-0.511 0.865-1.055l-0.968-4.839z"></path>
        </symbol>

    </defs>
</svg>