<svg width="512" height="512" viewBox="0 0 40 40" fill="none" xmlns="http://www.w3.org/2000/svg">
<path d="M20 40C31.0457 40 40 31.0457 40 20C40 8.9543 31.0457 0 20 0C8.9543 0 0 8.9543 0 20C0 31.0457 8.9543 40 20 40Z" fill="#484848"/>
<path d="M39.9993 20.1616L34.7039 14.8663L32.2727 16.456L20 4.18311L17.2618 19.3513L5.2959 14.8663L16.056 25.6263L10.9124 32.152L18.7203 39.9599C19.1434 39.9865 19.5701 40.0001 20 40.0001C30.9918 40.0001 39.9125 31.1329 39.9993 20.1616Z" fill="#262626"/>
<path d="M20 4.18311L24.5438 13.3899L34.704 14.8663L27.352 22.0327L29.0875 32.1519L20 27.3742L10.9124 32.1519L12.6479 22.0327L5.2959 14.8663L15.4561 13.3899L20 4.18311Z" fill="#FFCE00"/>
<path d="M20 27.3771V27.3742L29.0876 32.1519L27.352 22.0327L34.7041 14.8663L24.5438 13.3899L20 4.18311V27.3771Z" fill="#FFBC00"/>
<path d="M20 4.18311V18.6865L34.7041 14.8663L24.5438 13.3899L20 4.18311Z" fill="#FF9500"/>
<path d="M29.0883 32.1519L20.0007 18.6865L10.9131 32.1519L20.0007 27.3742L29.0883 32.1519Z" fill="#FFAA00"/>
<path d="M29.0876 32.1519L20 18.6865V18.6946V27.3771V27.3742L29.0876 32.1519Z" fill="#FF9500"/>
<path d="M15.4561 13.3899L5.2959 14.8663L20 18.6865V4.18311" fill="#FFDC4A"/>
</svg>