<svg width="18" height="18" viewBox="0 0 18 18" fill="none" xmlns="http://www.w3.org/2000/svg">
<path d="M2.23255 16.5C2.08768 16.5 1.94604 16.4571 1.82557 16.3766C1.7051 16.2961 1.61121 16.1817 1.55576 16.0479C1.50031 15.914 1.48581 15.7668 1.51408 15.6247C1.54235 15.4826 1.61213 15.352 1.71459 15.2496L15.2497 1.71455C15.387 1.57718 15.5733 1.5 15.7676 1.5C15.9619 1.5 16.1482 1.57718 16.2856 1.71455C16.423 1.85192 16.5001 2.03824 16.5001 2.23251C16.5001 2.42679 16.423 2.61311 16.2856 2.75048L2.75052 16.2855C2.68256 16.3536 2.60182 16.4076 2.51293 16.4444C2.42404 16.4813 2.32876 16.5001 2.23255 16.5Z" fill="#EAE9E9"/>
<path d="M15.7676 16.5C15.6714 16.5001 15.5762 16.4813 15.4873 16.4444C15.3984 16.4076 15.3176 16.3536 15.2497 16.2855L1.71461 2.75048C1.57724 2.61311 1.50006 2.42679 1.50006 2.23251C1.50006 2.03824 1.57724 1.85192 1.71461 1.71455C1.85198 1.57718 2.0383 1.5 2.23257 1.5C2.42685 1.5 2.61317 1.57718 2.75054 1.71455L16.2856 15.2496C16.3881 15.352 16.4578 15.4826 16.4861 15.6247C16.5144 15.7668 16.4999 15.914 16.4444 16.0479C16.389 16.1817 16.2951 16.2961 16.1746 16.3766C16.0542 16.4571 15.9125 16.5 15.7676 16.5V16.5Z" fill="#EAE9E9"/>
</svg>