<svg width="16" height="16" viewBox="0 0 16 16" fill="none" xmlns="http://www.w3.org/2000/svg">
<g clip-path="url(#clip0_219_68438)">
<path d="M9.25046 4.92019C9.07677 4.92019 8.90568 4.89087 8.74184 4.83119C8.22049 4.64156 7.83977 4.16947 7.69737 3.53612C7.57877 3.00865 7.62977 2.39856 7.84102 1.81815C8.05227 1.23775 8.40537 0.737529 8.83528 0.409685C9.35149 0.0161855 9.94659 -0.100877 10.4679 0.0890605C11.4569 0.449029 11.8526 1.7725 11.3687 3.10209C11.1574 3.6825 10.8043 4.18272 10.3744 4.51056C10.0205 4.78037 9.6294 4.92019 9.25046 4.92019ZM9.95671 1.44287C9.91637 1.44287 9.82802 1.46775 9.71046 1.5574C9.50056 1.71744 9.31352 1.99244 9.19727 2.31175C9.08102 2.63112 9.04759 2.962 9.10549 3.21956C9.14399 3.39081 9.20965 3.46559 9.23543 3.47497C9.2614 3.48447 9.35971 3.46925 9.49927 3.36284C9.70918 3.20281 9.89621 2.92781 10.0125 2.6085C10.2508 1.95353 10.0757 1.48215 9.97424 1.44522C9.97015 1.44375 9.96427 1.44287 9.95671 1.44287Z" fill="#FF993A"/>
<path d="M11.3688 3.10223C11.1575 3.68254 10.8044 4.18285 10.3744 4.51066C10.0207 4.78035 9.6294 4.92035 9.25034 4.92035C9.0769 4.92035 8.90565 4.89098 8.7419 4.83129C8.22065 4.6416 7.83972 4.16941 7.69753 3.53629C7.62597 3.21848 7.61597 2.87066 7.66565 2.51754C8.01815 2.70879 8.42222 2.81723 8.85128 2.81723C8.93003 2.81723 9.00784 2.81348 9.08472 2.80629C9.07097 2.95473 9.07753 3.09566 9.10565 3.21973C9.14409 3.39098 9.20972 3.46566 9.23534 3.47504C9.26128 3.48441 9.35972 3.46941 9.4994 3.36285C9.70909 3.20285 9.89628 2.92785 10.0125 2.60848C10.0244 2.57598 10.035 2.5441 10.0447 2.51285C10.6813 2.16504 11.1494 1.54723 11.295 0.813477C11.6282 1.40816 11.6775 2.25379 11.3688 3.10223Z" fill="#F97C15"/>
<path d="M5.87122 4.51544C5.44132 4.1876 5.08822 3.68741 4.87697 3.10697C4.39304 1.77738 4.78876 0.453911 5.77779 0.0939423C6.29907 -0.0959952 6.89416 0.0210673 7.41038 0.414599C7.84029 0.742442 8.19338 1.24263 8.40463 1.82307C8.61588 2.4035 8.66688 3.01354 8.54829 3.54104C8.40591 4.17438 8.02516 4.64647 7.50382 4.8361C7.33997 4.89579 7.16885 4.9251 6.99519 4.9251C6.61626 4.9251 6.22519 4.78529 5.87122 4.51544ZM6.27144 1.45013C6.16997 1.48707 5.99485 1.95844 6.23322 2.61341C6.34947 2.93272 6.53651 3.20769 6.74641 3.36775C6.88598 3.47416 6.98429 3.48938 7.01026 3.47988C7.03604 3.4705 7.10169 3.39572 7.14019 3.22447C7.1981 2.96691 7.16466 2.63604 7.04841 2.31666C6.93216 1.99735 6.74513 1.72238 6.53522 1.56232C6.41763 1.47269 6.32932 1.44779 6.28898 1.44779C6.28138 1.44782 6.27551 1.44866 6.27144 1.45013Z" fill="#FFAF40"/>
<path d="M7.89931 0.903287C7.75246 0.715225 7.5879 0.550162 7.41012 0.414568C6.8939 0.0210683 6.29881 -0.0959942 5.77752 0.0939433C5.07543 0.349475 4.67252 1.09051 4.6709 1.97463C4.67002 2.44526 5.12606 2.78276 5.57902 2.65513C5.58365 2.65382 5.58827 2.65254 5.59293 2.65122C5.90071 2.56476 6.11109 2.28413 6.11377 1.96444C6.11627 1.66482 6.20796 1.47316 6.27118 1.45016C6.27524 1.44869 6.28112 1.44785 6.28868 1.44785C6.32902 1.44785 6.41737 1.47272 6.53493 1.56238C6.61418 1.62282 6.69015 1.69966 6.76027 1.7891C6.95552 2.03813 7.29318 2.12597 7.58656 2.00735C7.59099 2.00554 7.59546 2.00376 7.5999 2.00194C8.03799 1.82432 8.19021 1.27585 7.89931 0.903287Z" fill="#FFC751"/>
<path d="M4.7135 1.49457C4.6859 1.64648 4.67147 1.80557 4.6709 1.9696C4.66922 2.44176 5.1169 2.7867 5.57103 2.65742C5.57834 2.65532 5.58562 2.65329 5.59293 2.65123C5.90072 2.56476 6.11112 2.28413 6.11378 1.96445C6.1144 1.89142 6.12031 1.82482 6.12981 1.76551C6.1584 1.5872 6.12425 1.40435 6.02568 1.25304C6.02303 1.24895 6.02034 1.24482 6.01768 1.24073C5.66609 0.69954 4.82887 0.859603 4.7135 1.49457Z" fill="#FFE059"/>
<path d="M14.5814 16H1.4195C1.15547 16 0.941406 15.7859 0.941406 15.5219V4.23193H15.0595V15.5219C15.0595 15.7859 14.8454 16 14.5814 16Z" fill="#12ADB5"/>
<path d="M0.941406 4.23193H15.0595V6.98493H0.941406V4.23193Z" fill="#0D8BA0"/>
<path d="M15.0595 4.23193V15.5219C15.0595 15.786 14.8455 16.0001 14.5814 16.0001H1.41953C1.15547 16.0001 0.941406 15.786 0.941406 15.5219V13.4366C2.26359 14.3216 3.85328 14.8376 5.56359 14.8376C10.1592 14.8376 13.8848 11.1119 13.8848 6.51631C13.8848 5.72412 13.7742 4.95787 13.5673 4.23193H15.0595Z" fill="#0D8BA0"/>
<path d="M15.0663 6.17243H0.934148C0.670117 6.17243 0.456055 5.95836 0.456055 5.69433V3.69343C0.456055 3.42939 0.670117 3.21533 0.934148 3.21533H15.0664C15.3304 3.21533 15.5445 3.42939 15.5445 3.69343V5.69433C15.5444 5.95836 15.3304 6.17243 15.0663 6.17243Z" fill="#3CD3D3"/>
<path d="M11.2958 3.21533H3.25662C2.84953 3.21533 2.51953 3.54533 2.51953 3.95243C2.51953 4.35952 2.84953 4.68952 3.25662 4.68952H11.2958C11.7029 4.68952 12.0329 4.35952 12.0329 3.95243C12.0329 3.54533 11.7029 3.21533 11.2958 3.21533Z" fill="#57EAE6"/>
<path d="M5.31549 3.21533H4.28299C3.8759 3.21533 3.5459 3.54533 3.5459 3.95243C3.5459 4.35952 3.8759 4.68952 4.28299 4.68952H5.31549C5.72259 4.68952 6.05259 4.35952 6.05259 3.95243C6.05259 3.54533 5.72255 3.21533 5.31549 3.21533Z" fill="#A5F9F3"/>
<path d="M6.4834 4.23193H9.51777V16.0001H6.4834V4.23193Z" fill="#FFAF40"/>
<path d="M6.4834 4.23193H9.51752V6.98493H6.4834V4.23193Z" fill="#FF993A"/>
<path d="M6.40039 3.21533H9.59939V6.17243H6.40039V3.21533Z" fill="#FFC751"/>
<path d="M8.00527 12.5123V8.65742C8.00527 8.23717 7.66459 7.89648 7.24434 7.89648C6.82409 7.89648 6.4834 8.23717 6.4834 8.65742V12.5123C6.4834 12.9325 6.82409 13.2732 7.24434 13.2732C7.66459 13.2732 8.00527 12.9325 8.00527 12.5123Z" fill="#FFC751"/>
<path d="M8.00527 10.9284V9.61787C8.00527 9.19762 7.66459 8.85693 7.24434 8.85693C6.82409 8.85693 6.4834 9.19762 6.4834 9.61787V10.9284C6.4834 11.3486 6.82409 11.6893 7.24434 11.6893C7.66459 11.6893 8.00527 11.3486 8.00527 10.9284Z" fill="#FFE059"/>
<path d="M2.46328 10.6715V8.42353C2.46328 8.00328 2.12259 7.6626 1.70234 7.6626C1.28209 7.6626 0.941406 8.00328 0.941406 8.42353V10.6715C0.941406 11.0918 1.28209 11.4325 1.70234 11.4325C2.12262 11.4325 2.46328 11.0918 2.46328 10.6715Z" fill="#3CD3D3"/>
<path d="M2.46328 9.44412V9.10859C2.46328 8.68834 2.12259 8.34766 1.70234 8.34766C1.28209 8.34766 0.941406 8.68834 0.941406 9.10859V9.44412C0.941406 9.86437 1.28209 10.2051 1.70234 10.2051C2.12262 10.205 2.46328 9.86434 2.46328 9.44412Z" fill="#57EAE6"/>
<path d="M6.40039 3.21533H9.59939V4.69389H6.40039V3.21533Z" fill="#FFE059"/>
<path d="M9.51777 13.8398V16.0002H6.4834V14.7873C7.57184 14.6677 8.59715 14.3383 9.51777 13.8398Z" fill="#FF993A"/>
<path d="M15.0591 9.08984V15.5217C15.0591 15.7858 14.845 15.9998 14.581 15.9998H9.8916C13.0957 15.1502 14.6035 12.4364 15.0591 9.08984Z" fill="#02718C"/>
</g>
<defs>
<clipPath id="clip0_219_68438">
<rect width="16" height="16" fill="white"/>
</clipPath>
</defs>
</svg>