<svg width="24" height="24" viewBox="0 0 24 24" fill="none" xmlns="http://www.w3.org/2000/svg">
<path d="M2.97674 22C2.78357 22 2.59473 21.9428 2.4341 21.8354C2.27347 21.7281 2.14827 21.5756 2.07435 21.3971C2.00042 21.2187 1.98108 21.0223 2.01877 20.8328C2.05647 20.6434 2.14951 20.4694 2.28612 20.3328L20.3329 2.28603C20.516 2.10287 20.7645 1.99997 21.0235 1.99997C21.2825 1.99997 21.531 2.10287 21.7141 2.28603C21.8973 2.4692 22.0002 2.71762 22.0002 2.97665C22.0002 3.23569 21.8973 3.48411 21.7141 3.66727L3.66736 21.714C3.57675 21.8048 3.46909 21.8768 3.35058 21.9259C3.23206 21.975 3.10501 22.0001 2.97674 22Z" fill="white"/>
<path d="M21.0234 22C20.8952 22.0001 20.7681 21.975 20.6496 21.9259C20.5311 21.8768 20.4234 21.8048 20.3328 21.714L2.28606 3.66727C2.1029 3.48411 2 3.23569 2 2.97665C2 2.71762 2.1029 2.4692 2.28606 2.28603C2.46923 2.10287 2.71765 1.99997 2.97668 1.99997C3.23572 1.99997 3.48414 2.10287 3.66731 2.28603L21.7141 20.3328C21.8507 20.4694 21.9437 20.6434 21.9814 20.8328C22.0191 21.0223 21.9998 21.2187 21.9258 21.3971C21.8519 21.5756 21.7267 21.7281 21.5661 21.8354C21.4055 21.9428 21.2166 22 21.0234 22Z" fill="white"/>
</svg>