<svg width="18" height="18" viewBox="0 0 18 18" fill="none" xmlns="http://www.w3.org/2000/svg">
<path d="M16.875 2.8125H6.1875C6.03788 2.8125 5.895 2.87212 5.78925 2.97675L5.0625 3.70463L4.33575 2.97675C4.23 2.87212 4.08712 2.8125 3.9375 2.8125H1.125C0.505125 2.8125 0 3.31762 0 3.9375V14.0625C0 14.6835 0.505125 15.1875 1.125 15.1875H3.9375C4.08712 15.1875 4.23 15.1279 4.33575 15.0233L5.0625 14.2954L5.78925 15.0221C5.895 15.1279 6.03788 15.1875 6.1875 15.1875H16.875C17.496 15.1875 18 14.6835 18 14.0625V3.9375C18 3.31762 17.496 2.8125 16.875 2.8125Z" fill="url(#paint0_linear_574_115066)"/>
<path d="M5.625 5.0625H4.5V6.1875H5.625V5.0625Z" fill="#FAFAFA"/>
<path d="M5.625 11.8125H4.5V12.9375H5.625V11.8125Z" fill="#FAFAFA"/>
<path d="M5.625 9.5625H4.5V10.6875H5.625V9.5625Z" fill="#FAFAFA"/>
<path d="M5.625 7.3125H4.5V8.4375H5.625V7.3125Z" fill="#FAFAFA"/>
<defs>
<linearGradient id="paint0_linear_574_115066" x1="9" y1="2.8125" x2="9" y2="15.1875" gradientUnits="userSpaceOnUse">
<stop stop-color="#3CD3D3"/>
<stop offset="1" stop-color="#0D8BA0"/>
</linearGradient>
</defs>
</svg>