<svg width="16" height="16" viewBox="0 0 16 16" fill="none" xmlns="http://www.w3.org/2000/svg">
<path d="M11.2 0.827637C9.96887 0.827637 8.84966 1.29507 8 2.05707C7.15034 1.29507 6.03113 0.827637 4.8 0.827637C2.14903 0.827637 0 2.97667 0 5.62764C0 8.93107 3.58622 12.9311 8 15.1725C12.4138 12.9311 16 8.93111 16 5.62767C16 2.97667 13.851 0.827637 11.2 0.827637Z" fill="#12ADB5"/>
<path d="M3.31034 6.45839C3.31034 4.00236 4.65306 1.91932 6.52259 1.14964C5.98822 0.942512 5.40797 0.827637 4.8 0.827637C2.14903 0.827637 0 2.97667 0 5.62764C0 8.93107 3.58622 12.9311 8 15.1725C8.00362 15.1706 8.00722 15.1687 8.01087 15.1668C5.24078 12.5817 3.31034 9.30073 3.31034 6.45839Z" fill="#18BBC4"/>
<path d="M11.2 0.827637C11.0951 0.827637 10.9923 0.835637 10.8891 0.842324C12.9703 0.993574 14.6207 3.07492 14.6207 5.62764C14.6207 8.93107 11.6528 12.9311 8 15.1725C12.4138 12.9311 16 8.93111 16 5.62767C16 2.97667 13.851 0.827637 11.2 0.827637Z" fill="#3CD3D3"/>
<path d="M12.9653 6.06876C13.4224 6.06876 13.7929 5.69824 13.7929 5.24117C13.7929 4.7841 13.4224 4.41357 12.9653 4.41357C12.5082 4.41357 12.1377 4.7841 12.1377 5.24117C12.1377 5.69824 12.5082 6.06876 12.9653 6.06876Z" fill="#57EAE6"/>
<path d="M12.5515 3.86223C12.78 3.86223 12.9653 3.67697 12.9653 3.44845C12.9653 3.21992 12.78 3.03467 12.5515 3.03467C12.323 3.03467 12.1377 3.21992 12.1377 3.44845C12.1377 3.67697 12.323 3.86223 12.5515 3.86223Z" fill="#57EAE6"/>
</svg>