<svg width="32" height="32" viewBox="0 0 32 32" fill="none" xmlns="http://www.w3.org/2000/svg">
<path d="M27.3146 4.68598C21.0662 -1.56181 10.9352 -1.5625 4.68598 4.68598C-1.5625 10.9345 -1.56181 21.0655 4.68598 27.3146C10.9345 33.5617 21.0655 33.5624 27.3146 27.3146C33.5624 21.0655 33.5617 10.9352 27.3146 4.68598Z" fill="#E9D04D"/>
<path d="M21.5543 12.859C21.2876 10.0476 18.9562 7.83426 16.1181 7.70474L16 7.70093L15.8667 7.70474C13.0438 7.83426 10.7124 10.0476 10.4457 12.859C10.2743 14.7295 11.021 16.5695 12.4457 17.7733C12.7429 18.0247 12.9905 18.3409 13.1581 18.6914C13.3257 19.0457 13.4133 19.419 13.4133 19.8076C13.4133 19.979 13.4552 20.139 13.52 20.2838V21.7009C13.52 22.1619 13.7943 22.5581 14.1905 22.7371V23.1562C14.1905 23.7847 14.701 24.299 15.3333 24.299H16.6667C17.299 24.299 17.8095 23.7847 17.8095 23.1562V22.7371C18.2057 22.5581 18.48 22.1619 18.48 21.7009V20.2838C18.5486 20.139 18.5867 19.979 18.5867 19.8076C18.5867 19.419 18.6743 19.0457 18.8419 18.6914C19.0095 18.3409 19.2571 18.0247 19.5543 17.7733C20.979 16.5695 21.7257 14.7295 21.5543 12.859ZM12.9524 12.9619C12.9524 13.1714 12.781 13.3428 12.5714 13.3428C12.3619 13.3428 12.1905 13.1714 12.1905 12.9619C12.1905 10.8628 13.901 9.15236 16 9.15236C16.2095 9.15236 16.381 9.32379 16.381 9.53331C16.381 9.74283 16.2095 9.91426 16 9.91426C14.32 9.91426 12.9524 11.2819 12.9524 12.9619ZM17.0476 23.1562C17.0476 23.3657 16.8762 23.5371 16.6667 23.5371H15.3333C15.1238 23.5371 14.9524 23.3657 14.9524 23.1562V22.8438H17.0476V23.1562ZM17.7181 21.7009C17.7181 21.9105 17.5467 22.0819 17.3371 22.0819H14.6629C14.4533 22.0819 14.2819 21.9105 14.2819 21.7009V20.9124C14.3695 20.9352 14.461 20.9505 14.5562 20.9505H17.4438C17.539 20.9505 17.6305 20.9352 17.7181 20.9124V21.7009Z" fill="white"/>
</svg>