<svg width="24" height="24" viewBox="0 0 24 24" fill="none" xmlns="http://www.w3.org/2000/svg">
<g clip-path="url(#clip0_375_67860)">
<path d="M0 5.01953C0 4.82062 0.0790176 4.62985 0.21967 4.4892C0.360322 4.34855 0.551088 4.26953 0.75 4.26953H23.25C23.4489 4.26953 23.6397 4.34855 23.7803 4.4892C23.921 4.62985 24 4.82062 24 5.01953C24 5.21844 23.921 5.40921 23.7803 5.54986C23.6397 5.69051 23.4489 5.76953 23.25 5.76953H0.75C0.551088 5.76953 0.360322 5.69051 0.21967 5.54986C0.0790176 5.40921 0 5.21844 0 5.01953ZM23.25 11.2501H0.75C0.551088 11.2501 0.360322 11.3291 0.21967 11.4698C0.0790176 11.6104 0 11.8012 0 12.0001C0 12.199 0.0790176 12.3898 0.21967 12.5304C0.360322 12.6711 0.551088 12.7501 0.75 12.7501H23.25C23.4489 12.7501 23.6397 12.6711 23.7803 12.5304C23.921 12.3898 24 12.199 24 12.0001C24 11.8012 23.921 11.6104 23.7803 11.4698C23.6397 11.3291 23.4489 11.2501 23.25 11.2501ZM12 18.2307H0.75C0.551088 18.2307 0.360322 18.3097 0.21967 18.4504C0.0790176 18.591 0 18.7818 0 18.9807C0 19.1796 0.0790176 19.3704 0.21967 19.511C0.360322 19.6517 0.551088 19.7307 0.75 19.7307H12C12.1989 19.7307 12.3897 19.6517 12.5303 19.511C12.671 19.3704 12.75 19.1796 12.75 18.9807C12.75 18.7818 12.671 18.591 12.5303 18.4504C12.3897 18.3097 12.1989 18.2307 12 18.2307Z" fill="white"/>
</g>
<defs>
<clipPath id="clip0_375_67860">
<rect width="24" height="24" fill="white"/>
</clipPath>
</defs>
</svg>