<svg width="100" height="42" viewBox="0 0 100 42" fill="none" xmlns="http://www.w3.org/2000/svg">
<g clip-path="url(#clip0_762_127818)">
<path d="M59.122 41.2906H-0.00427246V40.8653C-0.00427246 30.0238 4.3025 19.6263 11.9686 11.9602C19.6347 4.29408 30.0322 -0.0126953 40.8737 -0.0126953H100V0.412674C100 5.78084 98.9426 11.0964 96.8883 16.056C94.834 21.0155 91.823 25.5219 88.0271 29.3178C84.2312 33.1136 79.7249 36.1247 74.7653 38.179C69.8058 40.2333 64.4902 41.2906 59.122 41.2906Z" fill="#3AC3C3"/>
<path d="M59.122 38.7261H2.61597L2.67552 37.9731C4.16856 18.1169 20.9664 2.56543 40.8779 2.56543H97.3797L97.3201 3.31833C95.8271 23.1746 79.0463 38.7261 59.122 38.7261ZM4.13453 37.3138H59.122C78.0679 37.3138 94.0618 22.7194 95.8611 3.95213H40.8779C31.7124 3.98618 22.8845 7.41481 16.0988 13.5761C9.31302 19.7373 5.05061 28.1942 4.13453 37.3138Z" fill="white"/>
<path d="M36.5605 30.7798H33.9019L31.7751 18.0187C31.7862 18.5105 31.7477 19.0022 31.6602 19.4862L29.2569 30.7925H26.2793L30.5925 10.4982H33.2511L35.4673 22.9998C35.4561 22.508 35.4946 22.0163 35.5821 21.5323L37.9302 10.4727H40.9077L36.5605 30.7798Z" fill="white"/>
<path d="M47.4116 30.7797H38.9978L43.311 10.4854H51.6313L51.0613 13.1694H45.7739L44.4978 19.0948H49.079L48.5218 21.7279H43.9746L42.6219 28.1084H48.0029L47.4116 30.7797Z" fill="white"/>
<path d="M68.7779 10.4854L61.4914 30.8052H58.5138L59.1391 19.3203C59.2114 18.8949 59.3092 18.2866 59.4326 17.4657C59.3432 17.891 59.1773 18.4993 58.9349 19.3203L54.6812 30.8052H51.7036L53.052 10.4854H56.1275L55.1363 22.519C55.0768 22.9444 54.979 23.5527 54.8471 24.3736C54.9449 23.9483 55.1151 23.34 55.3575 22.519L59.6665 10.4854H62.1549L61.351 22.519C61.2872 22.9444 61.1936 23.5527 61.0702 24.3736C61.1681 23.9483 61.334 23.34 61.5679 22.519L65.694 10.4854H68.7779Z" fill="white"/>
<path d="M73.7165 10.4854L69.9817 26.0454H67.5954L70.4751 10.4854H73.7165ZM69.2756 30.7797H66.2682L66.9276 27.666H69.9222L69.2756 30.7797Z" fill="white"/>
</g>
<defs>
<clipPath id="clip0_762_127818">
<rect width="100" height="41.2906" fill="white"/>
</clipPath>
</defs>
</svg>