<svg width="124" height="24" viewBox="0 0 124 24" fill="none" xmlns="http://www.w3.org/2000/svg">
<g clip-path="url(#clip0_509_8673)">
<path d="M9.97393 17.836C9.90847 17.6335 9.72887 17.4897 9.51639 17.4705L6.63011 17.2085L5.4888 14.5371C5.40465 14.3413 5.21299 14.2146 5.00005 14.2146C4.78711 14.2146 4.59545 14.3413 4.5113 14.5376L3.36999 17.2085L0.483257 17.4705C0.271154 17.4901 0.0920116 17.6335 0.0261682 17.836C-0.0396751 18.0385 0.0211327 18.2606 0.181583 18.4006L2.36326 20.3139L1.71994 23.1478C1.67286 23.3561 1.75374 23.5715 1.92662 23.6965C2.01955 23.7636 2.12827 23.7978 2.23791 23.7978C2.33244 23.7978 2.42621 23.7723 2.51036 23.722L5.00005 22.234L7.48882 23.722C7.67094 23.8315 7.90052 23.8216 8.07302 23.6965C8.24598 23.5711 8.32678 23.3557 8.27971 23.1478L7.63638 20.3139L9.81806 18.401C9.97851 18.2606 10.0398 18.0389 9.97393 17.836Z" fill="#FFC107"/>
</g>
<g clip-path="url(#clip1_509_8673)">
<path d="M37.9583 14.1375C37.8536 13.8135 37.5662 13.5834 37.2262 13.5527L32.6082 13.1334L30.7821 8.85927C30.6474 8.54603 30.3408 8.34326 30.0001 8.34326C29.6594 8.34326 29.3527 8.54603 29.2181 8.86L27.392 13.1334L22.7732 13.5527C22.4338 13.5841 22.1472 13.8135 22.0419 14.1375C21.9365 14.4615 22.0338 14.8168 22.2905 15.0408L25.7812 18.1022L24.7519 22.6364C24.6766 22.9697 24.806 23.3143 25.0826 23.5143C25.2313 23.6217 25.4052 23.6764 25.5807 23.6764C25.7319 23.6764 25.8819 23.6356 26.0166 23.5551L30.0001 21.1743L33.9821 23.5551C34.2735 23.7304 34.6408 23.7144 34.9168 23.5143C35.1936 23.3137 35.3229 22.969 35.2475 22.6364L34.2182 18.1022L37.7089 15.0414C37.9656 14.8168 38.0636 14.4621 37.9583 14.1375Z" fill="#FFC107"/>
</g>
<g clip-path="url(#clip2_509_8673)">
<path d="M73.9374 9.20634C73.7803 8.72036 73.3493 8.3752 72.8393 8.32924L65.9123 7.70026L63.1731 1.28902C62.9712 0.819161 62.5112 0.515015 62.0001 0.515015C61.4891 0.515015 61.0291 0.819161 60.8271 1.29012L58.088 7.70026L51.1598 8.32924C50.6508 8.3763 50.2208 8.72036 50.0628 9.20634C49.9048 9.69231 50.0507 10.2253 50.4358 10.5614L55.6718 15.1534L54.1278 21.9547C54.0149 22.4547 54.209 22.9716 54.6239 23.2716C54.8469 23.4327 55.1079 23.5148 55.371 23.5148C55.5979 23.5148 55.8229 23.4536 56.0249 23.3327L62.0001 19.7615L67.9732 23.3327C68.4103 23.5957 68.9612 23.5717 69.3752 23.2716C69.7904 22.9707 69.9843 22.4536 69.8713 21.9547L68.3273 15.1534L73.5633 10.5623C73.9484 10.2253 74.0955 9.69323 73.9374 9.20634Z" fill="#FFC107"/>
</g>
<g clip-path="url(#clip3_509_8673)">
<path d="M101.958 14.1375C101.854 13.8135 101.566 13.5834 101.226 13.5527L96.6082 13.1334L94.7821 8.85927C94.6474 8.54603 94.3408 8.34326 94.0001 8.34326C93.6594 8.34326 93.3527 8.54603 93.2181 8.86L91.392 13.1334L86.7732 13.5527C86.4338 13.5841 86.1472 13.8135 86.0419 14.1375C85.9365 14.4615 86.0338 14.8168 86.2905 15.0408L89.7812 18.1022L88.7519 22.6364C88.6766 22.9697 88.806 23.3143 89.0826 23.5143C89.2313 23.6217 89.4052 23.6764 89.5807 23.6764C89.7319 23.6764 89.8819 23.6356 90.0166 23.5551L94.0001 21.1743L97.9821 23.5551C98.2735 23.7304 98.6408 23.7144 98.9168 23.5143C99.1936 23.3137 99.3229 22.969 99.2475 22.6364L98.2182 18.1022L101.709 15.0414C101.966 14.8168 102.064 14.4621 101.958 14.1375Z" fill="#FFC107"/>
</g>
<g clip-path="url(#clip4_509_8673)">
<path d="M123.974 17.836C123.908 17.6335 123.729 17.4897 123.516 17.4705L120.63 17.2085L119.489 14.5371C119.405 14.3413 119.213 14.2146 119 14.2146C118.787 14.2146 118.595 14.3413 118.511 14.5376L117.37 17.2085L114.483 17.4705C114.271 17.4901 114.092 17.6335 114.026 17.836C113.96 18.0385 114.021 18.2606 114.182 18.4006L116.363 20.3139L115.72 23.1478C115.673 23.3561 115.754 23.5715 115.927 23.6965C116.02 23.7636 116.128 23.7978 116.238 23.7978C116.332 23.7978 116.426 23.7723 116.51 23.722L119 22.234L121.489 23.722C121.671 23.8315 121.901 23.8216 122.073 23.6965C122.246 23.5711 122.327 23.3557 122.28 23.1478L121.636 20.3139L123.818 18.401C123.979 18.2606 124.04 18.0389 123.974 17.836Z" fill="#FFC107"/>
</g>
<defs>
<clipPath id="clip0_509_8673">
<rect width="10" height="10" fill="white" transform="translate(0 14)"/>
</clipPath>
<clipPath id="clip1_509_8673">
<rect width="16" height="16" fill="white" transform="translate(22 8)"/>
</clipPath>
<clipPath id="clip2_509_8673">
<rect width="24" height="24" fill="white" transform="translate(50)"/>
</clipPath>
<clipPath id="clip3_509_8673">
<rect width="16" height="16" fill="white" transform="translate(86 8)"/>
</clipPath>
<clipPath id="clip4_509_8673">
<rect width="10" height="10" fill="white" transform="translate(114 14)"/>
</clipPath>
</defs>
</svg>