<svg aria-hidden="true" style="position:absolute;width:0;height:0" xmlns="http://www.w3.org/2000/svg" overflow="hidden">
    <defs>
        <symbol id="icon-Icon" viewBox="0 0 46 32">
            <path   d="M45.153 2.914c1.425 1.515 1.425 3.971 0 5.485l-19.462 20.687c-1.425 1.515-3.736 1.515-5.161 0l-19.462-20.687c-1.425-1.515-1.425-3.971 0-5.485s3.736-1.515 5.161 0l16.882 17.944 16.882-17.944c1.425-1.515 3.735-1.515 5.161 0z"></path>
        </symbol>
        <symbol id="icon-search" viewBox="0 0 32 32">
            <path fill="#aeb1cd" style="fill: var(--color1, #aeb1cd)" d="M20.163 22.114l9.482 9.482c0.539 0.539 1.412 0.539 1.951 0s0.539-1.412 0-1.951l-9.482-9.482c3.904-4.874 3.596-12.009-0.922-16.527-4.848-4.848-12.708-4.848-17.556 0s-4.848 12.708 0 17.556c4.518 4.518 11.653 4.826 16.527 0.922zM5.587 19.242c-3.771-3.771-3.771-9.884 0-13.655s9.884-3.771 13.655 0c3.768 3.768 3.771 9.875 0.008 13.647-0.003 0.003-0.006 0.006-0.008 0.008s-0.006 0.006-0.008 0.008c-3.771 3.762-9.879 3.76-13.647-0.008z">
            </path>
        </symbol>
        <symbol id="icon-Vector" viewBox="0 0 45 32">
            <path fill="#fff" style="fill: var(--color1, #fff); stroke: var(--color1, #fff)" stroke="#fff" stroke-linejoin="miter" stroke-linecap="butt" stroke-miterlimit="4" stroke-width="1.28" d="M35.409 13.938h-30.838c-0.541 0-1.055 0.223-1.43 0.612s-0.581 0.91-0.581 1.45 0.206 1.061 0.581 1.45v0c0.375 0.389 0.889 0.612 1.43 0.612h30.838l-7.585 7.863c-0.186 0.193-0.332 0.42-0.431 0.669s-0.15 0.514-0.15 0.782c0 0.268 0.051 0.534 0.15 0.782s0.246 0.476 0.431 0.669c0.186 0.193 0.408 0.347 0.654 0.452v0c0.246 0.106 0.51 0.16 0.778 0.16s0.532-0.055 0.778-0.16c0.246-0.106 0.468-0.26 0.654-0.452l10.97-11.376c0-0 0-0 0-0l0.001-0-0.461-0.444-5.788-3.069zM35.409 13.938l-7.585-7.863c-0.186-0.193-0.332-0.42-0.431-0.669s-0.15-0.514-0.15-0.782c0-0.268 0.051-0.534 0.15-0.782s0.246-0.476 0.431-0.669c0.186-0.193 0.408-0.347 0.654-0.452s0.51-0.16 0.778-0.16 0.532 0.055 0.778 0.16c0.246 0.106 0.468 0.26 0.654 0.452l10.97 11.376c0 0 0 0 0 0l0 0-6.249-0.611z">
            </path>
        </symbol>
        <symbol id="icon-Vector-1" viewBox="0 0 26 32">
            <path fill="#fff" style="fill: var(--color1, #fff)" d="M24.815 18.076l-19.053 13.236c-2.245 1.562-5.762 0.293-5.762-2.078v-26.472c-0.001-0.531 0.191-1.050 0.553-1.496s0.878-0.8 1.486-1.019c0.608-0.219 1.284-0.295 1.944-0.217s1.28 0.305 1.782 0.654l19.046 13.236c0.373 0.259 0.673 0.578 0.878 0.937s0.311 0.748 0.311 1.141c0 0.394-0.106 0.783-0.311 1.141s-0.504 0.678-0.878 0.937h0.004z"></path>
        </symbol>
        <symbol id="icon-plus" viewBox="0 0 32 32">
        <path fill="#fff" style="fill: var(--color1, #fff)" d="M16 0c0.53 0 1.039 0.211 1.414 0.586s0.586 0.884 0.586 1.414v12h12c0.53 0 1.039 0.211 1.414 0.586s0.586 0.884 0.586 1.414c0 0.53-0.211 1.039-0.586 1.414s-0.884 0.586-1.414 0.586h-12v12c0 0.53-0.211 1.039-0.586 1.414s-0.884 0.586-1.414 0.586c-0.53 0-1.039-0.211-1.414-0.586s-0.586-0.884-0.586-1.414v-12h-12c-0.53 0-1.039-0.211-1.414-0.586s-0.586-0.884-0.586-1.414c0-0.53 0.211-1.039 0.586-1.414s0.884-0.586 1.414-0.586h12v-12c0-0.53 0.211-1.039 0.586-1.414s0.884-0.586 1.414-0.586z"></path>
        </symbol>
        <symbol id="icon-minus" viewBox="0 0 32 32">
        <path d="M0 13v6c0 0.552 0.448 1 1 1h30c0.552 0 1-0.448 1-1v-6c0-0.552-0.448-1-1-1h-30c-0.552 0-1 0.448-1 1z"></path>
        </symbol>
        <symbol id="icon-cup" viewBox="0 0 32 32">
        <path fill="#5f6dff" style="fill: var(--color1, #5f6dff)" d="M25.65 4.605c0.021-0.981-0.017-1.601-0.017-1.601h-19.268c0 0-0.036 0.62-0.016 1.601h-6.35v1.047c0 0.239 0.040 5.877 3.52 8.965 1.452 1.288 3.262 1.936 5.397 1.937 0.323 0 0.655-0.022 0.991-0.051 1.213 1.661 2.614 2.824 4.189 3.403v4.599h-4.626v2.881h-1.528v1.615h16.114v-1.614h-1.529v-2.881h-4.626v-4.599c1.575-0.579 2.977-1.742 4.189-3.403 0.338 0.029 0.67 0.050 0.993 0.050 2.133-0.002 3.944-0.649 5.396-1.938 3.479-3.088 3.52-8.726 3.52-8.965v-1.046h-6.35zM4.917 13.056c-1.988-1.759-2.575-4.77-2.749-6.357h4.302c0.182 1.977 0.61 4.441 1.599 6.606 0.181 0.397 0.371 0.774 0.566 1.142-1.483-0.057-2.73-0.519-3.718-1.392zM27.083 13.056c-0.986 0.873-2.235 1.335-3.717 1.392 0.195-0.367 0.385-0.745 0.566-1.142 0.988-2.166 1.416-4.629 1.597-6.606h4.302c-0.174 1.586-0.761 4.597-2.749 6.357z"></path>
        </symbol>
        <symbol id="icon-gear" viewBox="0 0 32 32">
        <path fill="#5f6dff" style="fill: var(--color1, #5f6dff)" d="M31.29 13.216l-3.671-0.903c-0.221-0.696-0.504-1.371-0.847-2.016 0.551-0.917 1.709-2.848 1.709-2.848 0.222-0.369 0.163-0.841-0.141-1.145l-2.651-2.651c-0.304-0.305-0.775-0.363-1.145-0.141l-2.853 1.709c-0.642-0.34-1.313-0.621-2.004-0.84l-0.903-3.671c-0.104-0.417-0.479-0.711-0.909-0.711h-3.75c-0.43 0-0.806 0.293-0.909 0.71 0 0-0.625 2.562-0.902 3.67-0.737 0.233-1.449 0.537-2.128 0.906l-2.958-1.775c-0.37-0.22-0.84-0.163-1.145 0.141l-2.651 2.651c-0.304 0.304-0.363 0.776-0.141 1.145l1.829 3.055c-0.295 0.581-0.542 1.187-0.739 1.806l-3.671 0.905c-0.417 0.104-0.711 0.479-0.711 0.909v3.75c0 0.43 0.293 0.806 0.71 0.909l3.671 0.903c0.223 0.706 0.512 1.392 0.862 2.050l-1.637 2.728c-0.222 0.369-0.163 0.841 0.141 1.145l2.651 2.651c0.303 0.303 0.775 0.361 1.145 0.141 0 0 1.836-1.101 2.735-1.639 0.651 0.347 1.332 0.633 2.034 0.856l0.902 3.67c0.103 0.418 0.479 0.711 0.909 0.711h3.75c0.43 0 0.805-0.293 0.909-0.71l0.902-3.67c0.722-0.229 1.418-0.525 2.080-0.883 0.924 0.554 2.778 1.666 2.778 1.666 0.369 0.221 0.841 0.164 1.145-0.141l2.651-2.651c0.304-0.304 0.363-0.776 0.141-1.145l-1.685-2.808c0.332-0.631 0.608-1.291 0.823-1.97l3.671-0.903c0.418-0.104 0.711-0.479 0.711-0.909v-3.75c0-0.43-0.293-0.805-0.71-0.909zM16 22.563c-3.618 0-6.563-2.944-6.563-6.563s2.944-6.563 6.563-6.563c3.618 0 6.563 2.944 6.563 6.563s-2.944 6.563-6.563 6.563z"></path>
        </symbol>
        <symbol id="icon-star" viewBox="0 0 31 32">
        <path fill="#5f6dff" style="fill: var(--color1, #5f6dff)" d="M15.36 23.936l-9.028 4.747 1.724-10.053-7.304-7.12 10.094-1.467 4.514-9.147 4.514 9.147 10.094 1.467-7.304 7.12 1.724 10.053-9.028-4.747z"></path>
        </symbol>
        <symbol id="icon-Component-mashine" viewBox="0 0 32 32">
        <path fill="#5f6dff" style="fill: var(--color1, #5f6dff)" d="M19.465 2.639c0-1.455-1.184-2.639-2.639-2.639h-11.179c-1.455 0-2.639 1.184-2.639 2.639v0.784h16.457v-0.784z"></path>
        <path fill="#5f6dff" style="fill: var(--color1, #5f6dff)" d="M0.004 32h22.326v-26.765h-22.326v26.765zM3.669 10.117h14.958v10.327h-14.958v-10.327zM3.669 23.314h14.958v2.256c0 1.867-1.519 3.385-3.385 3.385h-8.188c-1.867 0-3.385-1.519-3.385-3.385v-2.256z"></path>
        <path fill="#5f6dff" style="fill: var(--color1, #5f6dff)" d="M7.055 27.085h8.187c0.836 0 1.516-0.68 1.516-1.515v-0.386h-11.219v0.386c0 0.836 0.68 1.515 1.516 1.515z"></path>
        <path fill="#5f6dff" style="fill: var(--color1, #5f6dff)" d="M14.265 11.986h2.493v6.588h-2.493v-6.588z"></path>
        <path fill="#5f6dff" style="fill: var(--color1, #5f6dff)" d="M5.54 11.986h2.493v6.588h-2.493v-6.588z"></path>
        <path fill="#5f6dff" style="fill: var(--color1, #5f6dff)" d="M9.902 11.986h2.493v6.588h-2.493v-6.588z"></path>
        <path fill="#5f6dff" style="fill: var(--color1, #5f6dff)" d="M28.122 14.578v9.997h-1.913v-4.023h-2.066v9.413h2.066v-3.52h3.783v-11.872c-0.305 0.067-0.621 0.104-0.946 0.104-0.317 0-0.626-0.035-0.924-0.099z"></path>
        <path fill="#5f6dff" style="fill: var(--color1, #5f6dff)" d="M29.046 12.864c1.629 0 2.95-1.321 2.95-2.95s-1.321-2.95-2.95-2.95c-1.629 0-2.95 1.321-2.95 2.95s1.321 2.95 2.95 2.95z"></path>
        </symbol>
        <symbol id="icon-bask" viewBox="0 0 32 32">
        <path fill="#5f6dff" style="fill: var(--color1, #5f6dff)" d="M31.466 16.862c-1.719-5.672-7.174-9.543-13.713-9.657v-6.63c0-0.307-0.262-0.575-0.561-0.575-0.112 0-0.224 0.038-0.336 0.115l-16.628 12.34c-0.262 0.192-0.299 0.537-0.112 0.805 0.037 0.038 0.075 0.077 0.112 0.115l16.628 12.263c0.261 0.192 0.598 0.115 0.785-0.115 0.075-0.115 0.112-0.23 0.112-0.345v-6.592c4.035 0 7.436 1.955 8.631 4.905 1.009 2.529 0.187 5.25-2.205 7.511-0.224 0.23-0.262 0.575-0.037 0.805 0.112 0.115 0.262 0.192 0.411 0.192h0.448c0.112 0 0.224-0.038 0.299-0.115 5.493-3.717 7.847-9.504 6.165-15.023z"></path>
        </symbol>
        <symbol id="icon-Vector-ok" viewBox="0 0 38 32">
        <path fill="#fff" style="fill: var(--color2, #fff)" d="M34.86 7.72l-18.72 20.52c-1.26 1.44-3.42 1.44-4.68 0l-7.92-8.82c-1.080-1.26-1.080-3.24 0.18-4.5 1.26-1.080 3.24-1.080 4.5 0.18l5.58 6.3 16.38-17.82c1.26-1.26 3.24-1.44 4.5-0.18 1.26 1.080 1.26 3.24 0.18 4.32z"></path>
        </symbol>
        <symbol id="icon-close" viewBox="0 0 32 32">
        <path fill="#fff" style="fill: var(--color2, #fff)" d="M29.14 29.14c-1.080 1.080-2.88 1.080-3.96 0l-9.18-9.18-9.18 9.18c-1.080 1.080-2.88 1.080-3.96 0s-1.080-2.88 0-3.96l9.18-9.18-9.18-9.18c-1.080-1.080-1.080-2.88 0-3.96s2.88-1.080 3.96 0l9.18 9.18 9.18-9.18c1.080-1.080 2.88-1.080 3.96 0s1.080 2.88 0 3.96l-9.18 9.18 9.18 9.18c1.080 1.080 1.080 2.88 0 3.96z"></path>
        </symbol>
        <symbol id="icon-slot-machine-1" viewBox="0 0 32 32">
        <path fill="#5f6dff" style="fill: var(--color1, #5f6dff)" d="M28.87 0c-1.726 0-3.131 1.404-3.131 3.13 0 1.359 0.875 2.506 2.087 2.938v8.54h-2.087v-1.739c0-7.096-5.773-12.87-12.87-12.87s-12.87 5.773-12.87 12.87v16c0 1.726 1.404 3.13 3.13 3.13h19.478c1.726 0 3.13-1.404 3.13-3.13v-12.174h3.131c0.576 0 1.043-0.467 1.043-1.043v-9.584c1.212-0.432 2.087-1.579 2.087-2.938 0-1.726-1.404-3.13-3.13-3.13zM5.982 9.042c1.033-2.912 3.8-4.869 6.887-4.869s5.855 1.957 6.887 4.869c0.192 0.543-0.092 1.14-0.635 1.332-0.539 0.193-1.138-0.088-1.332-0.634-0.738-2.081-2.715-3.479-4.92-3.479s-4.182 1.398-4.92 3.479c-0.193 0.543-0.789 0.828-1.332 0.634-0.543-0.193-0.827-0.789-0.635-1.332zM13.913 9.391c0 0.576-0.467 1.043-1.043 1.043s-1.043-0.467-1.043-1.043 0.467-1.043 1.043-1.043c0.576 0 1.043 0.467 1.043 1.043zM18.087 27.826h-10.435c-0.576 0-1.043-0.467-1.043-1.043s0.467-1.043 1.043-1.043h10.435c0.576 0 1.043 0.467 1.043 1.043s-0.467 1.043-1.043 1.043zM21.217 22.609c0 0.576-0.467 1.043-1.043 1.043h-14.609c-0.576 0-1.043-0.467-1.043-1.043v-9.043c0-0.576 0.467-1.043 1.043-1.043h14.609c0.576 0 1.043 0.467 1.043 1.043v9.043h-0z"></path>
        <path fill="#5f6dff" style="fill: var(--color1, #5f6dff)" d="M14.261 14.609h-2.783v6.957h2.783v-6.957z"></path>
        <path fill="#5f6dff" style="fill: var(--color1, #5f6dff)" d="M9.391 14.609h-2.783v6.957h2.783v-6.957z"></path>
        <path fill="#5f6dff" style="fill: var(--color1, #5f6dff)" d="M19.13 14.609h-2.783v6.957h2.783v-6.957z"></path>
        </symbol>
        <symbol id="icon-question-square-fill" viewBox="0 0 30 32">
        <path fill="#9297c5" style="fill: var(--color1, #9297c5)" d="M3.733 1.067c-0.99 0-1.94 0.393-2.64 1.093s-1.093 1.65-1.093 2.64v22.4c0 0.99 0.393 1.94 1.093 2.64s1.65 1.094 2.64 1.094h22.4c0.99 0 1.94-0.393 2.64-1.094s1.094-1.65 1.094-2.64v-22.4c0-0.99-0.393-1.94-1.094-2.64s-1.65-1.093-2.64-1.093h-22.4zM10.259 12.328c-0.060 0.001-0.12-0.011-0.175-0.034s-0.106-0.057-0.148-0.1c-0.042-0.043-0.075-0.094-0.096-0.151s-0.031-0.116-0.029-0.176c0.175-3.164 2.765-4.267 5.131-4.267 2.606 0 4.988 1.363 4.988 4.181 0 2.016-1.185 2.975-2.322 3.84-1.376 1.043-1.885 1.434-1.885 2.774v0.196c0 0.124-0.049 0.242-0.137 0.33s-0.206 0.137-0.33 0.137h-1.512c-0.123 0-0.24-0.048-0.327-0.134s-0.137-0.203-0.139-0.325l-0.007-0.405c-0.071-1.73 0.924-2.796 2.18-3.709 1.101-0.829 1.801-1.374 1.801-2.559 0-1.54-1.172-2.18-2.453-2.18-1.499 0-2.339 0.892-2.505 2.117-0.034 0.256-0.239 0.467-0.497 0.467h-1.538zM14.599 24.355c-1.090 0-1.883-0.736-1.883-1.73 0-1.030 0.793-1.755 1.885-1.755 1.137 0 1.919 0.724 1.919 1.755 0 0.995-0.784 1.73-1.921 1.73z"></path>
        </symbol>
        <symbol id="icon-Component-2-5" viewBox="0 0 32 32">
        <path fill="#5f6dff" style="fill: var(--color1, #5f6dff)" d="M0 18.875v0.938c0 1.551 1.262 2.813 2.813 2.813h5.045l-1.197 2.393c-0.313 0.623 0.144 1.357 0.839 1.357h9.375v-7.5h-16.875z"></path>
        <path fill="#5f6dff" style="fill: var(--color1, #5f6dff)" d="M25.437 0h-22.625c-1.551 0-2.813 1.262-2.813 2.813v14.188h16.875v-2.813c0-2.585 2.103-4.687 4.688-4.687h6.687v-6.688c0-1.551-1.262-2.813-2.813-2.813z"></path>
        <path fill="#5f6dff" style="fill: var(--color1, #5f6dff)" d="M29.187 11.375h-7.625c-1.551 0-2.813 1.262-2.813 2.812v0.938c3.112 0 10.599 0 13.25 0v-0.938c0-1.551-1.262-2.812-2.813-2.812z"></path>
        <path fill="#5f6dff" style="fill: var(--color1, #5f6dff)" d="M18.75 17v9.375c3.112 0 10.599 0 13.25 0v-9.375c-2.662 0-10.141 0-13.25 0z"></path>
        <path fill="#5f6dff" style="fill: var(--color1, #5f6dff)" d="M18.75 28.25v0.937c0 1.551 1.262 2.813 2.813 2.813h7.625c1.551 0 2.813-1.262 2.813-2.813v-0.937c-2.662 0-10.141 0-13.25 0z"></path>
        </symbol>
        <symbol id="icon-chevron-double-right" viewBox="0 0 32 32">
        <path fill="#fff" style="fill: var(--color1, #fff)" d="M7.292 3.292c0.093-0.093 0.203-0.167 0.325-0.217s0.252-0.076 0.383-0.076c0.132 0 0.262 0.026 0.383 0.076s0.232 0.124 0.325 0.217l12 12c0.093 0.093 0.167 0.203 0.217 0.325s0.076 0.252 0.076 0.383c0 0.132-0.026 0.262-0.076 0.383s-0.124 0.232-0.217 0.325l-12 12c-0.188 0.188-0.442 0.293-0.708 0.293s-0.52-0.105-0.708-0.293c-0.188-0.188-0.293-0.442-0.293-0.708s0.105-0.52 0.293-0.708l11.294-11.292-11.294-11.292c-0.093-0.093-0.167-0.203-0.217-0.325s-0.076-0.252-0.076-0.383c0-0.132 0.026-0.262 0.076-0.383s0.124-0.232 0.217-0.325z"></path>
        <path fill="#fff" style="fill: var(--color1, #fff)" d="M15.292 3.292c0.093-0.093 0.203-0.167 0.325-0.217s0.252-0.076 0.383-0.076c0.132 0 0.262 0.026 0.383 0.076s0.232 0.124 0.325 0.217l12 12c0.093 0.093 0.167 0.203 0.217 0.325s0.076 0.252 0.076 0.383c0 0.132-0.026 0.262-0.076 0.383s-0.124 0.232-0.217 0.325l-12 12c-0.188 0.188-0.442 0.293-0.708 0.293s-0.52-0.105-0.708-0.293c-0.188-0.188-0.293-0.442-0.293-0.708s0.105-0.52 0.293-0.708l11.294-11.292-11.294-11.292c-0.093-0.093-0.167-0.203-0.217-0.325s-0.076-0.252-0.076-0.383c0-0.132 0.026-0.262 0.076-0.383s0.124-0.232 0.217-0.325z"></path>
        </symbol>
    </defs>
</svg>